<?xml version="1.0" encoding="iso-8859-1"?>
<!-- Generator: Adobe Illustrator 15.0.2, SVG Export Plug-In . SVG Version: 6.00 Build 0)  -->
<!DOCTYPE svg PUBLIC "-//W3C//DTD SVG 1.1//EN" "http://www.w3.org/Graphics/SVG/1.1/DTD/svg11.dtd">
<svg version="1.1" id="Layer_1" xmlns="http://www.w3.org/2000/svg" xmlns:xlink="http://www.w3.org/1999/xlink" x="0px" y="0px"
	 width="280px" height="115px" viewBox="0 0 280 115" style="enable-background:new 0 0 280 115;" xml:space="preserve">
<rect x="2.427" y="80.719" style="fill:#B61E2D;" width="275.938" height="2.292"/>
<path style="fill:#B61E2D;" d="M93.42,31.267C93.42,15.104,114.933,2,141.475,2c26.539,0,48.049,13.104,48.049,29.267
	c0,16.175-21.512,29.277-48.049,29.277C114.933,60.543,93.42,47.441,93.42,31.267z"/>
<path style="fill:#FFFFFF;" d="M101.326,31.267c0-12.658,17.975-22.918,40.148-22.918c22.172,0,40.159,10.26,40.159,22.918
	c0,12.66-17.987,22.925-40.159,22.925C119.301,54.192,101.326,43.926,101.326,31.267z"/>
<path style="fill:#B61E2D;" d="M154.425,23.093c-1.532,0.158-4.485,0-4.485,0s-2.856-1.462-3.502-1.871
	c-0.625-0.41-2.362-1.467-2.362-1.467h-3.464c0,0-2.267-0.068-2.837,0.167c-0.578,0.244-1.295,0.891-1.295,0.891
	s-1.477,0.489-2.364,0.818c-0.876,0.331-2.096,0.889-2.096,0.889s-0.548,0.135-1.532-0.252c-0.989-0.395-1.572-0.966-2.455-0.966
	c-0.875,0-1.779-0.08-1.779-0.08l-0.889,0.238c0,0-0.718-0.958-1.369-1.207c-0.664-0.251-1.809-0.567-2.287-0.567
	c-0.469,0-1.208-0.09-1.208-0.09s-0.023-0.975-0.584-1.045c-0.546-0.085-6.877-0.989-6.877-0.989l-0.164,1.312l5.507,0.812
	c0,0,0.333,0.173,0.412,0.567c0.085,0.389,0.085,2.896,0.085,3.634c0,0.746-0.497,3.739-0.497,3.739s-0.135,1.624-0.301,2.755
	c-0.176,1.129-0.176,1.696-0.26,2.112c-0.064,0.417-0.156,1.079-0.156,1.624c0,0.557-0.241,3.028-0.328,3.326
	c-0.09,0.309-0.802,2.116-0.885,2.676c-0.083,0.549-0.823,2.095-0.823,2.508c0,0.406,0.221,0.67-0.165,0.9
	c-0.378,0.228-1.529,0.561-1.529,0.561l-1.625,0.33l0.242,0.957c0,0,1.983,0,2.445,0.166c0.467,0.168,0.955,0.386,1.134-0.166
	c0.157-0.555,0.32-1.765,0.32-1.765h1.213c0,0,0.062,0.583,0.885,0c0.82-0.576,1.707-1.216,2.112-1.949
	c0.413-0.747,1.383-1.728,1.545-2.451c0.163-0.719,0.488-1.288,0.488-1.288s0.32-1.6,0.32-1.93s0.316-1.488,0.316-1.488l0.445,0.024
	c0,0-0.17,1.305,1.183,1.437c1.365,0.14,1.973-0.277,2.009-0.43c0.039-0.142,0.638-0.04,0.638-0.04s0.542,0.111,0.687,0.828
	c0.139,0.717,0.154,1.216,0.65,1.536c0.497,0.329,0.896,0.466,1.253,0.615c0.357,0.152,1.103,0.368,1.103,0.368
	s0.158,0.454,0.658,0.882c0.49,0.434,1.775,1.29,1.968,1.323c0.17,0.045,0.64,0.259,0.64,0.259s0.158,1.182,0.641,1.543
	c0.503,0.356,1.755,1.103,2.12,1.144c0.362,0.03,1.609,0.03,1.609,0.03s0.115,0.189,0.365,0.254c0.249,0.072,1.5,0,1.5,0
	s0.568,0.947,1.292,0.827c0.724-0.104,2.185-0.541,2.612-0.755c0.436-0.225,0.826-0.616,0.826-0.616s1.119,0.147,1.646,0.147
	c0.534,0,1.152-0.31,1.465-0.749c0.34-0.428,0.406-0.755,0.406-0.755s1.035,0.134,1.648-0.14c0.604-0.28,0.921-0.789,1.037-1.044
	c0.097-0.246,0.097-0.321,0.097-0.321s1.246,0.115,2.271-0.496c1.004-0.621,1.211-0.764,1.274-1.118
	c0.081-0.346,0.041-1.355,0.041-1.355s0.542-0.208,0.971-0.431c0.438-0.211,0.755-0.643,1.05-0.643c0.271,0,0.743,0.108,0.743,0.108
	s0.384,1.649,0.384,2.688c0,1.037,0.116,2.713,0.217,3.04c0.113,0.325,1.013,2.323,1.83,2.525c0.822,0.211,5.761,0.844,7.632-4.653
	l2.049-0.912l-0.047-1.545l-2.001,0.457v-0.072c0,0-0.163-0.278-0.135-0.385c0.037-0.108-0.402-0.715-0.32-1.685
	c0.074-0.979-0.192-2.647-0.192-2.647l2.589-0.708l-0.209-1.831l-2.451,0.599c0,0-0.496-0.369-0.639-1.225
	c-0.139-0.852-0.777-4.183-1.039-4.713c-0.25-0.53-1.361-3.887-1.361-3.887s-1.256,0.606-0.705,0.317
	c0.656-0.317-0.19,0.15,0.246-0.063c0.422-0.203,1.11-0.676,1.11-0.676s2.607,0.182,3.115,0.115
	c0.503-0.078,1.399-0.724,1.399-0.724l-0.148-1.648l-0.589,0.047c0,0-3.245,0.572-3.565,0.816c-0.335,0.248-0.585,0.315-1.238,0.399
	c-0.666,0.077-1.945-1.361-1.945-1.361c-1.553-0.836-6.33,0.974-6.33,0.974s-0.55,0.378-0.639,2.839"/>
<path style="fill:#FFFFFF;" d="M163.907,44.094c0.243-0.762,3.299-1.563,2.975-4.137c-0.103-0.839-0.649-4.249-0.649-4.858
	c0-0.596-0.219-2.735-0.502-3.675c-0.316-0.955-0.403-2.374-0.664-2.91c-0.242-0.532-0.558-1.845-0.961-2.785
	c-0.397-0.941-0.633-1.873-0.782-2.132c-0.146-0.245-1.62-2.448-1.62-2.448l-2.055-0.261c-0.353-0.059-2.396,0.509-2.396,0.509
	l-0.316,1.811c0,0,0.905,1.122,1.049,1.905c0.158,0.784,0.442,1.896,0.442,3.181c0,1.296-0.106,2.24,0,2.99
	c0.104,0.721,0.445,3.026,0.554,4.116c0.094,1.094,0.351,1.837,0.396,2.985c0.058,1.135-0.079,1.452,0.358,2.238
	c0.437,0.787,0.16,2.103,0.16,2.103s0.873,1.411,1.43,1.367C161.874,44.037,163.907,44.094,163.907,44.094z"/>
<path style="fill:#FFFFFF;" d="M158.036,35.198l-0.8-3.97c0,0-0.295-1.492-0.387-1.998c-0.104-0.498-0.453-0.938-0.453-2.089
	c0-1.141,0.049-2.121-0.104-2.423c-0.148-0.307-0.534-0.507-1.082-0.354c-0.554,0.145-0.088,0.308-1.542,0.453
	c-1.462,0.154-2.578-0.145-3.384-0.308c-0.801-0.145-3.344-1.557-4.139-2.04c-0.778-0.485-2.976-1.92-2.976-1.92
	s-3.823,0.075-4.124,0.183c-0.298,0.095-1.333,0-1.689,0.251c-0.353,0.25-0.685,0.982-0.987,1.546
	c-0.3,0.542-0.638,0.744-1.187,0.85c-0.557,0.092-0.944,0.25-1.438,0.25c-0.509,0-0.961-0.057-0.961-0.057s0.069,1.693,2.092,1.645
	c2.024-0.052,3.372-0.5,3.772-0.961c0.397-0.444,0.453-1.534,0.453-1.534s0.194,0.371,0.301,0.749
	c0.097,0.385,0.205,0.893,0.205,0.893s1.244,0.409,1.645,0.453c0.387,0.052,0.497,0.251,1.184,0.297
	c0.688,0.052,2.183-0.396,2.183-0.396s-0.397,0.384-0.44,0.783c-0.054,0.396-0.24,0.396,0.205,0.705
	c0.43,0.296,2.396,1.923,2.875,2.582c0.489,0.651,1.147,1.439,1.334,1.594c0.204,0.145,0.342,0.145,0.795,0.145
	c0.446,0,1.079-0.486,1.432-1.087c0.363-0.602,0.609-1.337,0.609-1.337s-0.105,1.367-0.412,1.925
	c-0.295,0.542-0.783,0.758-0.84,1.146c-0.043,0.387-0.148,0.742,0.167,0.797c0.298,0.036,0.917-0.31,1.326-0.41
	c0.408-0.097,0.843-0.223,0.843-0.223s-1.085,0.424-1.252,0.936c-0.142,0.5-0.332,0.433-0.182,0.882
	c0.136,0.447,3.123,3.383,3.123,3.383s0.164,0.25,0.803,0.296c0.639,0.056,1.155-0.151,1.6-0.492
	C157.032,36.007,158.036,35.198,158.036,35.198z"/>
<path style="fill:#FFFFFF;" d="M133.042,22.823c0,0,0.586-0.367,1.342-0.604c0.749-0.234,1.888-0.588,1.888-0.588
	s-0.063,1.044-0.701,1.349c-0.646,0.294-1.676,0.294-2.025,0.247C133.191,23.184,133.042,22.823,133.042,22.823z"/>
<path style="fill:#FFFFFF;" d="M149.684,32.723c1.397,1.343,2.937,3.369,3.187,3.971c0.247,0.604,0.562,0.985,0.8,1.185
	c0.242,0.202,0.637,0,0.783,0.298c0.156,0.303,0.302,0.847-0.098,1.042c-0.408,0.202-1.631-0.237-2.474-0.738
	c-0.864-0.5-2.727-1.399-3.331-2.042c-0.607-0.634-1.392-1.141-1.638-1.538c-0.263-0.404-0.597-0.435-0.937-0.995
	c-0.363-0.548-1.017-1.835-1.017-1.835s0.161,1.656,0.408,2.093c0.245,0.429,1.657,1.774,2.142,2.274
	c0.492,0.499,2.844,2.933,3.135,3.285c0.287,0.347,1.013,1.092,0.231,1.443c-0.795,0.344-1.299,0.194-1.642,0.041
	c-0.328-0.14-1.075-1.401-1.776-1.885c-0.7-0.49-2.724-1.884-3.128-2.024c-0.409-0.151-0.956-0.302-0.956-0.302
	s1.093,1.55,1.49,1.836c0.397,0.287,2.062,1.576,2.497,2.082c0.433,0.499,0.883,0.607,0.785,1.1
	c-0.094,0.481-0.485,0.481-1.092,0.481c-0.601,0-1.634-0.279-1.933-0.678c-0.31-0.404-1.144-0.99-1.542-1.248
	c-0.407-0.25-1.162-0.444-1.645-0.642c-0.487-0.204-1.004-0.945-1.543-1.243c-0.539-0.296-1.847-0.146-1.847-0.146
	s0.657,0.883,0.657,1.136s0.439,0.701,0.096,0.752c-0.346,0.043-0.467-0.156-0.801-0.452c-0.34-0.3-1.193-1.236-1.193-1.236
	s-0.05-1.094-0.248-1.742c-0.189-0.653-0.629-1.096-0.629-1.096s0.094,0.549-0.106,1.297c-0.201,0.734-0.201,1.127-0.201,1.127h-0.5
	c0,0,0.5-0.979,0.198-1.583c-0.301-0.607-0.754-0.99-1.435-1.097c-0.692-0.094-2.229,0-2.229,0s-0.704-0.816-0.953-1.098
	c-0.257-0.278-0.888-0.258-1.192-0.05c-0.301,0.197-0.708,0.197-0.708,0.197s-1.084-1.185-2.268-1.433
	c-1.192-0.252-4.179-0.796-4.179-0.796l0.639-2.191c0,0,0.89-2.443,1.143-3.378c0.245-0.936,0.493-1.439,0.493-2.385v-2.088
	c0,0-0.024-0.69,0.909-0.54c0.939,0.151,1.943,0.747,2.928,1.043c0.987,0.301,1.827,0.068,2.531,0.705
	c0.7,0.627,1.337,2.268,2.929,2.371c1.597,0.103,2.798-0.212,3.438-0.6c0.633-0.38,1.176-0.627,2.126-0.43
	c0.954,0.195,2.513,0.589,2.798,0.891C143.078,26.16,149.684,32.723,149.684,32.723z"/>
<path style="fill:#FFFFFF;" d="M130.664,35.097c0.579,0.2,1.23,0.59,0.936,1.245c-0.305,0.653-0.992,0.653-1.543,0.399
	c-0.541-0.246-1.121-0.734-0.938-1.295C129.301,34.9,130.664,35.097,130.664,35.097z"/>
<path style="fill:#FFFFFF;" d="M134.384,36.04c0.445,0.303,1.235,0.617,1.134,1.305c-0.103,0.684-0.082,1.042-0.435,1.089
	c-0.349,0.045-0.924-0.11-1.249-0.354c-0.345-0.254-0.497-0.401-0.497-0.401s0.111,1.265-0.504,0.959
	c-0.599-0.313-0.552-1.44-0.147-1.944c0.403-0.504,0.521-0.687,0.907-0.687C133.98,36.007,134.384,36.04,134.384,36.04z"/>
<path style="fill:#FFFFFF;" d="M137.007,39.672c0.502,0.397,1.214,0.832,1.058,1.587c-0.155,0.753-0.84,1.057-1.289,0.804
	c-0.457-0.247-1.156-1.139-0.959-1.745c0.207-0.596,0.254-0.693,0.555-0.693C136.675,39.625,137.007,39.672,137.007,39.672z"/>
<path style="fill:#FFFFFF;" d="M140.997,42.703c0,0,0.388-0.589,0.786-0.732c0.398-0.154,0.721-0.4,1.055-0.106
	c0.334,0.3,0.48,0.536,0.686,0.587c0.193,0.042,0.455,0.251,0.302,0.542c-0.148,0.308-0.858,0.707-1.644,0.608
	c-0.787-0.093-1.185-0.301-1.236-0.498C140.895,42.899,140.997,42.703,140.997,42.703z"/>
<path style="fill:#FFFFFF;" d="M117.837,42.4c0,0,0.847-0.108,1.685-1.293c0.847-1.182,1.705-3.042,1.897-5.068
	c0.187-2.028,0.59-3.605,0.733-4.702c0.152-1.11,0.781-6.399,0.941-7.708c0.151-1.307,0.151-2.195,0.151-2.195
	s-1.013-0.406-1.642-0.451c-0.636-0.055-1.446-0.251-1.446-0.251s-0.343,2.012-0.343,2.494c0,0.491,0.058,2.743-0.144,3.231
	c-0.198,0.495-0.597,1.169-0.597,2.182c0,1.002,0.597,1.358,0.503,2.192c-0.104,0.829-0.603,1.474-0.755,2.325
	c-0.15,0.856-0.393,3.925-0.84,4.924c-0.453,0.998-0.865,2.277-1.111,2.933c-0.225,0.655-0.525,0.667-0.385,1.051
	c0.162,0.389,0.548,0.49,0.845,0.49C117.635,42.553,117.837,42.4,117.837,42.4z"/>
<path style="fill:#B61E2D;" d="M133.86,46.622c0,0,0,0.005,0,0.02v2.087c0,0.086,0.017,0.152,0.07,0.172
	c0.041,0.017,0.118,0.034,0.235,0.049v0.036h-0.886v-0.042c0.129-0.01,0.211-0.028,0.251-0.061c0.041-0.033,0.063-0.096,0.063-0.203
	v-1.615c0-0.056-0.017-0.099-0.023-0.127c-0.014-0.021-0.041-0.04-0.087-0.04c-0.029,0-0.057,0.005-0.104,0.024
	c-0.042,0.016-0.085,0.03-0.121,0.048v-0.043l0.576-0.319h0.025C133.86,46.618,133.86,46.622,133.86,46.622"/>
<path style="fill:#B61E2D;" d="M138.907,46.903c0.133,0.196,0.196,0.425,0.196,0.683c0,0.167-0.033,0.35-0.082,0.534
	c-0.069,0.182-0.146,0.344-0.271,0.482c-0.122,0.162-0.295,0.291-0.5,0.372c-0.117,0.04-0.25,0.078-0.424,0.102l-0.022-0.067
	c0.104-0.035,0.204-0.058,0.273-0.092c0.128-0.057,0.232-0.129,0.309-0.207c0.111-0.122,0.201-0.246,0.265-0.391
	c0.067-0.149,0.111-0.262,0.131-0.365L138.725,48c-0.081,0.07-0.173,0.104-0.272,0.133c-0.055,0.02-0.107,0.022-0.147,0.022
	c-0.184,0-0.316-0.072-0.42-0.215c-0.111-0.139-0.164-0.302-0.164-0.497c0-0.243,0.071-0.45,0.187-0.604
	c0.125-0.162,0.29-0.243,0.475-0.243C138.616,46.596,138.798,46.699,138.907,46.903 M138.644,47.935
	c0.081-0.052,0.129-0.087,0.137-0.115c0.001-0.003,0.007-0.057,0.007-0.129c0.01-0.073,0.01-0.146,0.01-0.179
	c0-0.25-0.048-0.447-0.115-0.59c-0.068-0.15-0.17-0.223-0.316-0.223c-0.111,0-0.194,0.042-0.257,0.149
	c-0.057,0.1-0.093,0.251-0.093,0.463c0,0.166,0.03,0.328,0.093,0.468c0.056,0.156,0.169,0.213,0.321,0.213
	C138.497,47.992,138.574,47.97,138.644,47.935z"/>
<path style="fill:#B61E2D;" d="M143.632,46.903c0.13,0.196,0.193,0.425,0.193,0.683c0,0.167-0.028,0.35-0.079,0.534
	c-0.069,0.182-0.154,0.344-0.262,0.482c-0.137,0.162-0.312,0.291-0.518,0.372c-0.107,0.04-0.248,0.078-0.424,0.102l-0.023-0.067
	c0.123-0.035,0.205-0.058,0.28-0.092c0.128-0.057,0.236-0.129,0.312-0.207c0.113-0.122,0.203-0.246,0.264-0.391
	c0.079-0.149,0.109-0.262,0.124-0.365L143.453,48c-0.079,0.07-0.169,0.104-0.281,0.133c-0.052,0.02-0.094,0.022-0.146,0.022
	c-0.168,0-0.321-0.072-0.418-0.215c-0.104-0.139-0.158-0.302-0.158-0.497c0-0.243,0.064-0.45,0.179-0.604
	c0.136-0.162,0.293-0.243,0.481-0.243C143.337,46.596,143.52,46.699,143.632,46.903 M143.374,47.935
	c0.079-0.052,0.121-0.087,0.124-0.115c0,0,0.016-0.057,0.016-0.129c0.006-0.073,0.006-0.146,0.006-0.179
	c0-0.25-0.035-0.447-0.121-0.59c-0.062-0.15-0.176-0.223-0.31-0.223c-0.11,0-0.194,0.042-0.25,0.149
	c-0.069,0.1-0.101,0.251-0.101,0.463c0,0.166,0.031,0.328,0.098,0.468c0.059,0.156,0.16,0.213,0.313,0.213
	C143.223,47.992,143.296,47.97,143.374,47.935z"/>
<path style="fill:#B61E2D;" d="M148.357,46.903c0.129,0.196,0.194,0.425,0.194,0.683c0,0.167-0.03,0.35-0.094,0.534
	c-0.051,0.182-0.142,0.344-0.255,0.482c-0.137,0.162-0.296,0.291-0.506,0.372c-0.113,0.04-0.264,0.078-0.436,0.102l-0.015-0.067
	c0.112-0.035,0.194-0.058,0.278-0.092c0.125-0.057,0.236-0.129,0.304-0.207c0.112-0.122,0.208-0.246,0.271-0.391
	c0.059-0.149,0.112-0.262,0.112-0.365L148.177,48c-0.075,0.07-0.175,0.104-0.271,0.133c-0.068,0.02-0.113,0.022-0.158,0.022
	c-0.178,0-0.322-0.072-0.421-0.215c-0.106-0.139-0.154-0.302-0.154-0.497c0-0.243,0.06-0.45,0.187-0.604
	c0.121-0.162,0.268-0.243,0.47-0.243C148.064,46.596,148.236,46.699,148.357,46.903 M148.102,47.935
	c0.075-0.052,0.111-0.087,0.111-0.115c0.021-0.003,0.023-0.057,0.023-0.129c0-0.073,0.008-0.146,0.008-0.179
	c0-0.25-0.042-0.447-0.113-0.59c-0.07-0.15-0.188-0.223-0.32-0.223c-0.103,0-0.192,0.042-0.246,0.149
	c-0.061,0.1-0.101,0.251-0.101,0.463c0,0.166,0.04,0.328,0.083,0.468c0.064,0.156,0.18,0.213,0.32,0.213
	C147.943,47.992,148.016,47.97,148.102,47.935z"/>
<rect x="2.427" y="111.35" style="fill:#B61E2D;" width="275.938" height="2.293"/>
<path style="fill:#58595B;" d="M13.62,91.096c0.089,0.545,0.135,1.104,0.135,1.682c0,0.113-0.007,0.261-0.018,0.455
	c-0.094,0.024-0.167,0.029-0.225,0.029c-0.035,0-0.101,0-0.179-0.025c-0.292-0.822-0.776-1.459-1.457-1.907
	c-0.664-0.44-1.5-0.663-2.487-0.663c-0.528,0-0.962,0.057-1.327,0.175c-0.628,0.22-1.188,0.522-1.674,0.911
	c-0.486,0.387-0.89,0.844-1.214,1.377c-0.34,0.54-0.605,1.188-0.792,1.941c-0.196,0.768-0.301,1.539-0.301,2.328
	c0,1.519,0.229,2.764,0.693,3.754c0.467,0.982,1.096,1.691,1.888,2.113c0.798,0.422,1.604,0.635,2.42,0.635l0.494-0.02
	c0.577-0.066,0.961-0.134,1.165-0.193c0.521-0.15,0.94-0.32,1.271-0.531c0.336-0.197,0.672-0.491,0.986-0.852
	c0.329-0.367,0.596-0.789,0.828-1.283l0.122-0.049c0.048,0,0.092,0.024,0.169,0.063c-0.01,0.17-0.01,0.287-0.019,0.339
	c-0.304,1.187-0.523,2.01-0.649,2.44c-0.118,0.033-0.262,0.076-0.429,0.131c-0.835,0.289-1.936,0.426-3.323,0.426
	c-1.115,0-1.948-0.071-2.503-0.227c-0.559-0.154-1.159-0.385-1.812-0.713c-0.653-0.322-1.231-0.759-1.729-1.274
	c-0.497-0.539-0.897-1.205-1.198-2.017C2.146,99.333,2,98.453,2,97.501c0-0.908,0.116-1.698,0.351-2.373
	c0.245-0.677,0.613-1.36,1.118-2.06c0.506-0.689,1.1-1.256,1.78-1.723c0.676-0.463,1.441-0.783,2.274-0.981
	c0.587-0.125,1.411-0.188,2.494-0.188c0.779,0,1.521,0.102,2.222,0.313C12.93,90.693,13.391,90.898,13.62,91.096z"/>
<path style="fill:#58595B;" d="M15.28,103.746c0.1-0.061,0.188-0.096,0.267-0.096h0.246c0.045,0,0.132,0,0.252-0.002
	c0.546-0.043,0.865-0.099,0.962-0.146c0.247-0.13,0.459-0.363,0.632-0.7c0.375-0.719,0.794-1.737,1.254-3.069
	c0.219-0.625,0.348-1.013,0.403-1.141c0.177-0.433,0.351-0.869,0.513-1.336l1.005-2.798c0.152-0.435,0.53-1.437,1.116-3.004
	c0.16-0.405,0.339-0.937,0.546-1.595l0.31-0.021l0.375,0.013c0.303,0.596,0.565,1.244,0.806,1.944
	c0.118,0.353,0.333,0.911,0.627,1.64l1.606,4.355l0.864,2.368c0.447,1.345,0.737,2.162,0.892,2.473
	c0.145,0.312,0.272,0.515,0.386,0.616c0.034,0.021,0.174,0.076,0.406,0.124c0.222,0.06,0.382,0.096,0.465,0.13
	c0.336,0.094,0.566,0.166,0.691,0.232c0.027,0.08,0.039,0.135,0.039,0.188c0,0.027-0.011,0.086-0.031,0.144
	c-0.218,0.012-0.385,0.02-0.478,0.02c-0.354,0-0.988-0.02-1.905-0.031l-1.06-0.021l-1.289,0.007c-0.09,0-0.173,0-0.253-0.003
	c-0.093-0.004-0.168-0.01-0.24-0.01H24.46c-0.077-0.006-0.153-0.035-0.214-0.069c0-0.097,0.016-0.192,0.054-0.29
	c0.089-0.034,0.167-0.063,0.229-0.072l1.123-0.066c0.283-0.012,0.5-0.062,0.654-0.123c0.043-0.131,0.064-0.219,0.064-0.29
	c0-0.124-0.095-0.459-0.274-0.982c-0.135-0.358-0.24-0.696-0.336-1.013c-0.094-0.322-0.471-1.373-1.126-3.143
	c-0.298-0.053-0.548-0.08-0.764-0.08l-2.272,0.027l-0.665-0.016c-0.248,0-0.513,0.016-0.792,0.05
	c-0.094,0.216-0.154,0.367-0.19,0.451l-0.936,2.921c-0.396,1.113-0.591,1.725-0.591,1.84c0,0.063,0.031,0.167,0.092,0.318
	c0.152,0.045,0.348,0.078,0.6,0.117l1.446,0.127c0.071,0.063,0.109,0.113,0.109,0.173c0,0.038-0.013,0.083-0.026,0.157
	c-0.317,0-0.567,0-0.734,0c-0.566,0-1.226-0.012-1.976-0.039c-0.34-0.018-0.59-0.024-0.738-0.024c-0.153,0-0.407,0.007-0.771,0.024
	c-0.249,0.01-0.417,0.013-0.517,0.013c-0.176,0-0.395-0.003-0.66-0.03v-0.063C15.245,103.9,15.25,103.831,15.28,103.746z
	 M20.34,97.376c0.762,0.05,1.623,0.069,2.591,0.069c0.556,0,1.036-0.02,1.458-0.057c-0.068-0.273-0.153-0.535-0.246-0.773
	c-0.459-1.227-0.715-1.907-0.758-2.032l-0.963-2.45l-0.115-0.201c-0.038,0.094-0.199,0.465-0.469,1.107
	c-0.445,1.102-0.776,1.959-0.973,2.575c-0.091,0.27-0.181,0.542-0.287,0.821c-0.102,0.271-0.159,0.459-0.188,0.563
	c-0.022,0.117-0.061,0.229-0.119,0.338L20.34,97.376z"/>
<path style="fill:#58595B;" d="M31.268,103.761c1.026-0.125,1.595-0.21,1.737-0.259c0.1-0.034,0.173-0.136,0.253-0.313v-0.125
	c0-0.162,0.025-0.82,0.087-1.918c0.017-0.307,0.02-0.608,0.02-0.92l-0.037-1.248l0.023-1.438l-0.006-2.657l0.006-1.915
	c0.014-0.8-0.053-1.294-0.185-1.47c-0.141-0.176-0.467-0.301-1.015-0.372c-0.538-0.079-0.839-0.134-0.906-0.168
	c-0.049-0.037-0.075-0.093-0.075-0.17c0-0.044,0-0.113,0.035-0.188c0.062-0.06,0.214-0.1,0.49-0.107
	c0.027,0,0.117-0.012,0.284-0.026c0.162-0.022,0.314-0.022,0.45-0.022h0.869l2.791-0.03c1.579,0,2.688,0.104,3.32,0.339
	c0.635,0.239,1.132,0.637,1.509,1.188c0.376,0.554,0.561,1.176,0.561,1.867c0,1.293-0.67,2.295-2.049,2.98
	c-0.218,0.121-0.409,0.229-0.549,0.314c0.237,0.52,0.579,1.117,1.012,1.834l1.343,2.31c0.53,0.853,0.91,1.383,1.12,1.595
	c0.192,0.213,0.451,0.395,0.748,0.54c0.285,0.146,0.775,0.267,1.471,0.397c0.014,0.078,0.014,0.142,0.014,0.176
	c0,0.045,0,0.097-0.014,0.168c-0.971,0.012-2.098,0.02-3.398,0.02c-0.094,0-0.229-0.007-0.385-0.02
	c-0.501-0.975-1.093-2.025-1.77-3.18l-1.57-2.871c-0.208-0.307-0.392-0.486-0.525-0.563c-0.145-0.073-0.323-0.112-0.552-0.112
	l-0.897,0.015l-0.309-0.015c-0.014,0.235-0.022,0.687-0.022,1.391v3.629c-0.006,0.136,0.02,0.33,0.086,0.563
	c0.054,0.137,0.147,0.237,0.292,0.328c0.129,0.084,0.533,0.209,1.185,0.358l0.449,0.112c0.045,0.066,0.085,0.166,0.085,0.287
	c-0.193,0.033-0.331,0.06-0.406,0.06c-0.64,0-1.082-0.019-1.353-0.026c-0.124,0-0.231-0.015-0.325-0.015l-1.437,0.022l-1.407-0.008
	c-0.065,0-0.389,0.008-0.968,0.027l-0.208-0.042l-0.022-0.106C31.117,103.922,31.171,103.846,31.268,103.761z M35.198,96.818
	c0.196,0.01,0.336,0.01,0.423,0.01c0.519,0,1.103-0.061,1.766-0.18c0.469-0.094,0.847-0.25,1.131-0.446
	c0.292-0.218,0.535-0.522,0.727-0.938c0.199-0.404,0.292-0.824,0.292-1.267c0-0.483-0.146-0.988-0.458-1.522
	c-0.229-0.414-0.625-0.754-1.184-1.021c-0.543-0.284-1.218-0.415-1.999-0.415c-0.19,0-0.441,0.01-0.742,0.029
	c-0.021,0.363-0.03,0.652-0.03,0.84l0.041,1.982l-0.011,0.827C35.154,95.259,35.166,95.959,35.198,96.818z"/>
<path style="fill:#58595B;" d="M44.903,104.145c0.008-0.105,0.028-0.199,0.088-0.285c0.552-0.145,1.087-0.242,1.604-0.295
	c0.349-0.021,0.573-0.106,0.67-0.235c0.074-0.093,0.114-0.427,0.132-1.013l0.076-2.805l-0.015-1.908l0.015-2.476v-0.67
	c0.011-1.489,0-2.414-0.027-2.783c-0.009-0.077-0.043-0.175-0.084-0.301c-0.183-0.091-0.346-0.14-0.466-0.17
	c-0.125-0.022-0.68-0.13-1.669-0.306c-0.008-0.08-0.008-0.131-0.008-0.172c0-0.045,0-0.102,0.008-0.164
	c0.145,0,0.357,0.012,0.66,0.016l1.624,0.063l0.924,0.024l0.286-0.013c0.028,0,0.129,0.009,0.298,0.018c0.426,0,0.667,0,0.728-0.004
	l0.846-0.064c0.577,0,0.979,0.008,1.217,0.024c-0.003,0.129-0.032,0.272-0.075,0.424c-0.074,0.011-0.447,0.032-1.103,0.048
	c-0.652,0.031-1.039,0.073-1.135,0.129c-0.164,0.09-0.25,0.373-0.25,0.852c0,0.107-0.006,0.336-0.022,0.688v0.637l0.017,1.959v0.676
	l0.022,3.504l-0.039,2.992l0.017,0.664c0,0.21,0.036,0.347,0.1,0.393c0.184,0.008,0.698,0.018,1.569,0.02h0.718l1.833-0.063
	c0.481-0.009,0.821-0.063,1.032-0.148c0.195-0.072,0.548-0.313,1.022-0.724c0.298-0.249,0.528-0.5,0.686-0.765
	c0.03-0.072,0.096-0.154,0.18-0.264c0.139-0.188,0.318-0.543,0.537-1.103h0.354c-0.041,0.252-0.089,0.489-0.146,0.722
	c-0.196,0.991-0.333,1.83-0.414,2.498c-0.012,0.139-0.029,0.271-0.042,0.383l-3.979-0.108c-3.393,0-5.424,0.03-6.066,0.091
	c-0.188,0.018-0.407,0.018-0.621,0.018h-1.102V104.145z"/>
<path style="fill:#58595B;" d="M58.765,97.309c0-0.722,0.089-1.369,0.268-1.931c0.172-0.556,0.456-1.164,0.871-1.833
	c0.413-0.654,0.906-1.204,1.484-1.643c0.59-0.447,1.38-0.834,2.407-1.174c0.729-0.232,1.63-0.354,2.747-0.354
	c0.742,0,1.472,0.094,2.173,0.295c0.711,0.196,1.355,0.482,1.938,0.83c0.578,0.359,1.163,0.896,1.748,1.629
	c0.397,0.518,0.698,1.064,0.908,1.653c0.264,0.772,0.4,1.565,0.4,2.383c0,0.933-0.094,1.709-0.274,2.321
	c-0.181,0.619-0.481,1.232-0.91,1.83c-0.318,0.468-0.897,1.004-1.701,1.607c-0.543,0.415-1.208,0.743-2.009,0.998
	c-0.8,0.245-1.665,0.381-2.586,0.381c-0.939,0-1.788-0.109-2.52-0.336c-0.732-0.221-1.353-0.484-1.839-0.8
	c-0.495-0.324-1-0.772-1.517-1.392c-0.52-0.612-0.907-1.295-1.184-2.043C58.906,98.986,58.765,98.182,58.765,97.309z
	 M66.137,103.907c0.6,0,1.21-0.095,1.845-0.259c0.636-0.157,1.215-0.434,1.704-0.821c0.497-0.394,0.881-0.824,1.166-1.312
	c0.281-0.494,0.509-1.132,0.667-1.904c0.173-0.764,0.265-1.534,0.265-2.303c0-0.965-0.149-1.914-0.423-2.857
	c-0.229-0.721-0.582-1.348-1.078-1.919c-0.494-0.558-1.085-0.996-1.797-1.306c-0.697-0.305-1.444-0.455-2.238-0.455
	c-0.641,0-1.278,0.097-1.883,0.313c-0.617,0.204-1.126,0.486-1.518,0.816c-0.398,0.324-0.768,0.793-1.101,1.397
	c-0.348,0.607-0.602,1.271-0.783,2.004c-0.178,0.732-0.26,1.368-0.26,1.929c0,0.586,0.082,1.252,0.26,1.996
	c0.182,0.743,0.416,1.383,0.728,1.937c0.304,0.537,0.69,1.022,1.134,1.446c0.458,0.416,0.961,0.733,1.517,0.961
	C64.906,103.791,65.499,103.907,66.137,103.907z"/>
<path style="fill:#58595B;" d="M83.724,90.994c0.059,0.46,0.089,0.738,0.089,0.807l-0.035,0.939
	c-0.022,0.406-0.036,0.673-0.06,0.773c-0.067,0.03-0.123,0.047-0.155,0.047l-0.105-0.02c-0.224-0.982-0.611-1.707-1.146-2.167
	c-0.543-0.451-1.198-0.687-1.984-0.687c-0.8,0-1.458,0.235-1.981,0.687c-0.517,0.46-0.774,0.981-0.774,1.573
	c0,0.471,0.18,0.885,0.544,1.267c0.356,0.386,1.286,0.958,2.767,1.726c1.134,0.574,1.949,1.057,2.437,1.431
	c0.48,0.368,0.849,0.798,1.093,1.286c0.25,0.49,0.375,1.035,0.375,1.634c0,0.76-0.204,1.476-0.593,2.134
	c-0.382,0.67-0.914,1.172-1.584,1.51c-0.663,0.334-1.543,0.504-2.642,0.504c-0.96,0-1.865-0.157-2.75-0.459
	c-0.515-0.181-0.824-0.34-0.943-0.443c-0.11-0.107-0.173-0.23-0.173-0.363c0-0.079,0.011-0.176,0.023-0.295
	c0.104-0.84,0.149-1.521,0.161-2.066c0.014-0.324,0.041-0.521,0.075-0.584c0.033-0.039,0.08-0.067,0.156-0.067
	c0.069,0,0.125,0.028,0.153,0.063c0.045,0.058,0.074,0.137,0.084,0.264c0.078,0.869,0.486,1.647,1.209,2.334
	c0.727,0.695,1.538,1.025,2.448,1.025c0.562,0,1.082-0.113,1.546-0.346c0.47-0.236,0.842-0.566,1.09-1.016
	c0.286-0.448,0.408-0.875,0.408-1.288c0-0.573-0.204-1.095-0.602-1.567c-0.406-0.479-1.215-1.027-2.434-1.667
	c-1.218-0.628-2.006-1.088-2.365-1.377c-0.599-0.478-1.049-0.974-1.34-1.51c-0.226-0.409-0.334-0.884-0.334-1.433
	c0-0.98,0.385-1.811,1.168-2.498c0.778-0.688,1.821-1.024,3.13-1.024c0.721,0,1.342,0.075,1.862,0.241
	C82.939,90.495,83.323,90.71,83.724,90.994z"/>
<path style="fill:#58595B;" d="M92.042,90.625l0.069-0.18c0.58,0,1.157,0.01,1.728,0.022h0.34c0.104,0,0.223,0,0.354-0.008
	c0.456-0.015,1.284-0.034,2.49-0.034c0.249,0,0.48,0.006,0.705,0.006c0.22,0.014,0.444,0.014,0.66,0.014
	c0.032,0.022,0.065,0.058,0.092,0.104l-0.027,0.161c-0.039,0.072-0.146,0.108-0.315,0.108h-0.082c-0.201,0-0.525,0.014-0.971,0.048
	c-0.46,0.042-0.761,0.112-0.895,0.219c-0.089,0.082-0.142,0.181-0.142,0.312c0,0.278,0.115,0.682,0.349,1.236l1.618,3.749
	l0.56,1.241c0.55,1.314,1.083,2.66,1.612,4.034c0.067,0.153,0.103,0.28,0.167,0.399l0.705-1.74c0.375-0.869,0.744-1.812,1.116-2.793
	l0.729-1.992c0.008-0.051,0.056-0.199,0.119-0.432c0.681-1.875,1.022-3.056,1.022-3.543c0-0.119-0.043-0.228-0.146-0.334
	c-0.094-0.108-0.251-0.205-0.46-0.273c-0.08-0.025-0.362-0.064-0.821-0.129l-0.789-0.092c-0.06-0.065-0.098-0.136-0.098-0.178
	l0.039-0.089l3.438-0.034h1.129c0.387,0,0.647,0.029,0.792,0.077l0.003,0.088c0,0.056-0.017,0.132-0.058,0.222
	c-0.175,0.054-0.337,0.094-0.467,0.103c-0.591,0.073-0.965,0.159-1.107,0.252c-0.133,0.101-0.284,0.298-0.439,0.608l-2.788,6.893
	c-0.869,2.08-1.493,3.682-1.847,4.823l-0.314,0.925c-0.096,0.052-0.168,0.085-0.246,0.085c-0.071,0-0.15-0.01-0.25-0.04
	c-0.843-2.168-1.528-3.852-2.054-5.047l-3.254-7.352c-0.237-0.436-0.411-0.701-0.528-0.787c-0.109-0.088-0.514-0.215-1.229-0.377
	c-0.24-0.058-0.385-0.092-0.408-0.108C92.095,90.755,92.059,90.71,92.042,90.625z"/>
<path style="fill:#58595B;" d="M107.93,103.746c0.161-0.061,0.324-0.107,0.483-0.113c1.081-0.072,1.708-0.205,1.863-0.396
	c0.156-0.184,0.23-1.086,0.23-2.715l-0.016-1.127v-1.156l-0.042-1.288l0.021-0.763v-0.828v-0.965l-0.031-0.442l0.031-0.55
	c0-0.125,0-0.273,0-0.444c0-0.456-0.021-0.914-0.069-1.401c-0.024-0.113-0.065-0.201-0.106-0.301
	c-0.271-0.127-0.692-0.227-1.272-0.267c-0.581-0.054-0.914-0.101-0.988-0.156c-0.07-0.043-0.095-0.156-0.105-0.329h0.9l2.821,0.071
	c0.717,0,1.673-0.025,2.885-0.071c0,0.116-0.001,0.219-0.019,0.314c-0.143,0.041-0.381,0.08-0.707,0.117
	c-0.681,0.082-1.086,0.159-1.239,0.232c-0.081,0.032-0.158,0.088-0.201,0.18c-0.076,0.127-0.106,0.362-0.126,0.715l-0.059,1.362
	l0.049,4.724v1.867c-0.014,0.592-0.026,0.99-0.026,1.205c0,0.789,0.021,1.301,0.061,1.52c0.042,0.22,0.102,0.371,0.201,0.468
	c0.099,0.103,0.259,0.176,0.467,0.233c0.328,0.082,0.584,0.119,0.775,0.123c0.403,0.016,0.644,0.071,0.745,0.17
	c0.028,0.092,0.043,0.174,0.043,0.232v0.086c-0.654,0.012-1.129,0.031-1.429,0.031c-0.178,0-0.5-0.02-0.956-0.031l-1.455,0.012
	h-2.502h-0.21L107.93,103.746z"/>
<path style="fill:#58595B;" d="M115.596,103.746c0.097-0.061,0.191-0.096,0.262-0.096h0.251c0.053,0,0.134,0,0.255-0.002
	c0.546-0.043,0.865-0.099,0.968-0.146c0.238-0.13,0.45-0.363,0.63-0.7c0.375-0.719,0.787-1.737,1.243-3.069
	c0.22-0.625,0.358-1.013,0.414-1.141c0.179-0.433,0.355-0.869,0.507-1.336l0.996-2.798c0.155-0.435,0.536-1.437,1.126-3.004
	c0.156-0.405,0.335-0.937,0.548-1.595l0.311-0.021l0.372,0.013c0.298,0.596,0.566,1.244,0.81,1.944
	c0.119,0.353,0.331,0.911,0.622,1.64l1.604,4.355l0.862,2.368c0.454,1.345,0.746,2.162,0.898,2.473
	c0.133,0.312,0.271,0.515,0.39,0.616c0.03,0.021,0.162,0.076,0.391,0.124c0.231,0.06,0.386,0.096,0.485,0.13
	c0.332,0.094,0.553,0.166,0.683,0.232c0.024,0.08,0.044,0.135,0.044,0.188c0,0.027-0.016,0.086-0.033,0.144
	c-0.227,0.012-0.394,0.02-0.477,0.02c-0.365,0-1.001-0.02-1.911-0.031l-1.07-0.021l-1.273,0.007c-0.083,0-0.177,0-0.269-0.003
	c-0.083-0.004-0.155-0.01-0.215-0.01h-0.247c-0.073-0.006-0.14-0.035-0.217-0.069c0-0.097,0.019-0.192,0.063-0.29
	c0.083-0.034,0.163-0.063,0.233-0.072l1.114-0.066c0.289-0.012,0.513-0.062,0.666-0.123c0.039-0.131,0.056-0.219,0.056-0.29
	c0-0.124-0.091-0.459-0.28-0.982c-0.127-0.358-0.237-0.696-0.336-1.013c-0.092-0.322-0.468-1.373-1.121-3.143
	c-0.288-0.053-0.542-0.08-0.769-0.08l-2.268,0.027l-0.672-0.016c-0.234,0-0.502,0.016-0.79,0.05
	c-0.091,0.216-0.152,0.367-0.18,0.451l-0.933,2.921c-0.397,1.113-0.596,1.725-0.596,1.84c0,0.063,0.028,0.167,0.091,0.318
	c0.156,0.045,0.35,0.078,0.604,0.117l1.438,0.127c0.081,0.063,0.114,0.113,0.114,0.173c0,0.038-0.011,0.083-0.026,0.157
	c-0.317,0-0.565,0-0.737,0c-0.565,0-1.222-0.012-1.972-0.039c-0.349-0.018-0.593-0.024-0.743-0.024
	c-0.151,0-0.409,0.007-0.772,0.024c-0.25,0.01-0.42,0.013-0.522,0.013c-0.166,0-0.391-0.003-0.654-0.03v-0.063
	C115.561,103.9,115.569,103.831,115.596,103.746z M120.661,97.376c0.759,0.05,1.618,0.069,2.585,0.069
	c0.558,0,1.042-0.02,1.461-0.057c-0.072-0.273-0.157-0.535-0.243-0.773c-0.463-1.227-0.721-1.907-0.769-2.032l-0.964-2.45
	l-0.107-0.201c-0.037,0.094-0.198,0.465-0.469,1.107c-0.446,1.102-0.773,1.959-0.968,2.575c-0.086,0.27-0.189,0.542-0.293,0.821
	c-0.089,0.271-0.163,0.459-0.183,0.563c-0.027,0.117-0.066,0.229-0.118,0.338L120.661,97.376z"/>
<path style="fill:#58595B;" d="M131.093,104.145c0.005-0.105,0.036-0.199,0.082-0.285c0.562-0.145,1.092-0.242,1.61-0.295
	c0.353-0.021,0.577-0.106,0.668-0.235c0.075-0.093,0.12-0.427,0.132-1.013l0.07-2.805l-0.001-1.908l0.001-2.476v-0.67
	c0.005-1.489,0-2.414-0.021-2.783c-0.001-0.077-0.03-0.175-0.079-0.301c-0.188-0.091-0.345-0.14-0.467-0.17
	c-0.128-0.022-0.681-0.13-1.663-0.306c-0.015-0.08-0.015-0.131-0.015-0.172c0-0.045,0-0.102,0.015-0.164
	c0.126,0,0.353,0.012,0.654,0.016l1.615,0.063l0.932,0.024l0.278-0.013c0.039,0,0.145,0.009,0.316,0.018
	c0.407,0,0.659,0,0.719-0.004l0.851-0.064c0.571,0,0.977,0.008,1.208,0.024c-0.003,0.129-0.03,0.272-0.083,0.424
	c-0.068,0.011-0.438,0.032-1.096,0.048c-0.649,0.031-1.033,0.073-1.131,0.129c-0.17,0.09-0.251,0.373-0.251,0.852
	c0,0.107-0.003,0.336-0.023,0.688v0.637l0.02,1.959v0.676l0.02,3.504l-0.04,2.992l0.02,0.664c0,0.21,0.035,0.347,0.104,0.393
	c0.168,0.008,0.693,0.018,1.556,0.02h0.725l1.836-0.063c0.477-0.009,0.823-0.063,1.026-0.148c0.211-0.072,0.56-0.313,1.039-0.724
	c0.279-0.249,0.512-0.5,0.668-0.765c0.041-0.072,0.09-0.154,0.178-0.264c0.135-0.188,0.316-0.543,0.541-1.103h0.35
	c-0.043,0.252-0.085,0.489-0.141,0.722c-0.192,0.991-0.344,1.83-0.41,2.498c-0.023,0.139-0.038,0.271-0.051,0.383l-3.962-0.108
	c-3.413,0-5.441,0.03-6.071,0.091c-0.203,0.018-0.402,0.018-0.632,0.018h-1.097V104.145z"/>
<path style="fill:#58595B;" d="M150.465,103.928c0.082-0.068,0.139-0.113,0.189-0.119c0.121-0.029,0.324-0.063,0.609-0.084
	c0.694-0.039,1.111-0.104,1.276-0.188c0.103-0.14,0.147-0.341,0.147-0.593l-0.006-0.748l0.006-2.701l-0.019-1.281l0.013-2.658
	l-0.061-3.033c-0.003-0.721-0.049-1.129-0.145-1.231c-0.113-0.122-0.488-0.204-1.125-0.222c-0.272-0.008-0.506-0.028-0.709-0.068
	c-0.092-0.052-0.137-0.111-0.137-0.188c0-0.058,0.016-0.131,0.051-0.205c0.068-0.033,0.113-0.045,0.164-0.045
	c0.098,0,0.227,0,0.358,0.012c0.422,0.033,0.856,0.051,1.3,0.051l0.79-0.018l1.862,0.045c0.931,0,1.66-0.012,2.188-0.031
	c0.515-0.02,0.872-0.03,1.048-0.03c0.17,0,0.573,0.019,1.219,0.035l1.502-0.004l0.191,0.032l0.869-0.032l0.11,0.049
	c0.036,0.068,0.06,0.119,0.071,0.188c0,0.09-0.013,0.25-0.047,0.453c-0.024,0.199-0.047,0.33-0.047,0.375
	c0,0.742,0.022,1.361,0.074,1.875c-0.002,0.045-0.027,0.066-0.059,0.084c-0.072,0-0.143-0.018-0.211-0.027
	c-0.074-0.143-0.185-0.381-0.306-0.717c-0.131-0.334-0.336-0.73-0.597-1.18c-0.173-0.289-0.313-0.466-0.418-0.529
	c-0.094-0.055-0.297-0.084-0.61-0.084c-0.061,0-0.38-0.012-0.959-0.021c-0.161-0.004-0.312-0.004-0.475-0.004l-3.011,0.066h-0.268
	c-0.386,0-0.619,0.043-0.697,0.136c-0.119,0.171-0.183,0.676-0.183,1.504c0,0.086,0.013,0.931,0.058,2.544v1.471
	c0.067,0.026,0.155,0.041,0.248,0.041h0.18c0.129,0,0.301,0.006,0.523,0.012c0.383,0.015,0.621,0.021,0.746,0.021
	c0.079,0,0.154-0.008,0.225-0.018c0.764-0.021,1.75-0.039,2.949-0.039c0.375-0.063,0.592-0.143,0.654-0.227
	c0.113-0.125,0.184-0.455,0.243-1c0.054-0.529,0.17-0.838,0.358-0.908c0.09,0,0.176,0.011,0.254,0.051
	c0.016,0.068,0.021,0.107,0.021,0.16c0,0.045-0.005,0.137-0.021,0.242c-0.045,0.262-0.054,1.088-0.054,2.465
	c0,0.36,0.009,0.781,0.063,1.227c0.037,0.456,0.057,0.704,0.057,0.734c0,0.066-0.013,0.15-0.033,0.252
	c-0.055,0.029-0.111,0.052-0.14,0.052h-0.075c-0.113-0.198-0.215-0.511-0.334-0.931c-0.176-0.715-0.372-1.158-0.568-1.35
	c-0.203-0.175-0.527-0.257-0.981-0.257c-0.114,0-0.284,0-0.545,0.017c-0.261,0-0.651,0.006-1.17,0.006h-0.687
	c-0.978,0-1.632,0.022-1.938,0.074v0.342v1.961v1.23v1.208c0.023,0.722,0.054,1.138,0.148,1.25c0.112,0.152,0.379,0.229,0.787,0.229
	l0.649-0.008c0.048,0,0.269,0,0.655,0.008c0.384,0.014,0.854,0.02,1.428,0.02c1.355,0,2.266-0.051,2.729-0.176
	c0.45-0.119,0.832-0.324,1.11-0.613c0.297-0.3,0.664-0.947,1.108-1.93c0.14-0.285,0.276-0.428,0.412-0.428
	c0.058,0,0.131,0.017,0.223,0.074c-0.223,0.699-0.335,1.159-0.358,1.379c-0.091,0.494-0.137,1-0.137,1.517
	c0,0.233-0.058,0.431-0.179,0.575H162.8l-2.985,0.041l-1.334-0.008l-3.181,0.045H154c-0.157,0-0.305,0-0.449,0
	c-1.277,0.062-2.217,0.09-2.807,0.09c-0.114,0-0.186-0.021-0.221-0.051c-0.051-0.039-0.06-0.086-0.06-0.152L150.465,103.928
	L150.465,103.928z"/>
<path style="fill:#58595B;" d="M173.176,90.994c0.066,0.46,0.092,0.738,0.092,0.807l-0.043,0.939
	c-0.017,0.406-0.037,0.673-0.058,0.773c-0.067,0.03-0.118,0.047-0.155,0.047l-0.105-0.02c-0.215-0.982-0.592-1.707-1.152-2.167
	c-0.533-0.451-1.197-0.687-1.97-0.687c-0.813,0-1.472,0.235-1.988,0.687c-0.522,0.46-0.771,0.981-0.771,1.573
	c0,0.471,0.181,0.885,0.549,1.267c0.352,0.386,1.273,0.958,2.754,1.726c1.142,0.574,1.947,1.057,2.431,1.431
	c0.488,0.368,0.867,0.798,1.104,1.286c0.25,0.49,0.373,1.035,0.373,1.634c0,0.76-0.2,1.476-0.594,2.134
	c-0.392,0.67-0.908,1.172-1.572,1.51c-0.676,0.334-1.559,0.504-2.649,0.504c-0.957,0-1.871-0.157-2.756-0.459
	c-0.509-0.181-0.83-0.34-0.937-0.443c-0.114-0.107-0.17-0.23-0.17-0.363c0-0.079,0.004-0.176,0.017-0.295
	c0.097-0.84,0.161-1.521,0.161-2.066c0.015-0.324,0.037-0.521,0.082-0.584c0.018-0.039,0.074-0.067,0.154-0.067
	c0.067,0,0.107,0.028,0.146,0.063c0.047,0.058,0.068,0.137,0.085,0.264c0.084,0.869,0.481,1.647,1.217,2.334
	c0.706,0.695,1.529,1.025,2.444,1.025c0.56,0,1.076-0.113,1.549-0.346c0.458-0.236,0.827-0.566,1.104-1.016
	c0.258-0.448,0.387-0.875,0.387-1.288c0-0.573-0.197-1.095-0.59-1.567c-0.414-0.479-1.22-1.027-2.43-1.667
	c-1.215-0.628-2.01-1.088-2.391-1.377c-0.585-0.478-1.042-0.974-1.328-1.51c-0.221-0.409-0.33-0.884-0.33-1.433
	c0-0.98,0.387-1.811,1.164-2.498c0.779-0.688,1.82-1.024,3.131-1.024c0.725,0,1.346,0.075,1.877,0.241
	C172.383,90.495,172.77,90.71,173.176,90.994z"/>
<path style="fill:#58595B;" d="M176.166,90.549c0.124-0.029,0.206-0.033,0.234-0.033c0.25,0,0.64,0.012,1.186,0.047
	c0.3,0.012,0.5,0.012,0.598,0.012c0.16,0,0.49-0.022,0.985-0.055l1.808-0.096c0.473-0.049,1.031-0.066,1.658-0.066
	c1.116,0,1.993,0.158,2.654,0.47c0.654,0.321,1.167,0.809,1.525,1.473c0.349,0.67,0.524,1.347,0.524,2.011
	c0,1.107-0.386,2.063-1.155,2.873c-0.781,0.808-1.834,1.205-3.15,1.205c-0.373,0-0.674-0.043-0.912-0.108
	c-0.262-0.085-0.534-0.216-0.855-0.427c-0.133-0.09-0.218-0.187-0.242-0.289c0.024-0.051,0.066-0.092,0.115-0.108
	c0.096,0,0.202,0.017,0.307,0.067c0.238,0.08,0.543,0.123,0.914,0.123c0.555,0,1.082-0.145,1.584-0.414
	c0.502-0.28,0.871-0.674,1.135-1.18c0.248-0.504,0.375-1.041,0.375-1.607c0-0.543-0.137-1.084-0.403-1.604
	c-0.267-0.528-0.618-0.931-1.055-1.241c-0.244-0.184-0.631-0.332-1.144-0.444c-0.504-0.125-0.9-0.183-1.199-0.183
	c-0.865,0-1.383,0.068-1.541,0.196l-0.01,0.146l0.027,1.189l-0.018,0.219c0,0.188-0.01,0.484-0.01,0.879
	c0,1.441,0.01,2.338,0.061,2.692v0.595l0.14,4.848c0,0.076-0.009,0.203-0.032,0.388c-0.014,0.192-0.026,0.362-0.026,0.494
	c0,0.346,0.026,0.601,0.089,0.778c0.167,0.05,0.663,0.164,1.482,0.352c0.386,0.098,0.59,0.145,0.631,0.161
	c0.063,0.021,0.102,0.06,0.147,0.131c-0.028,0.106-0.065,0.176-0.114,0.208c-0.043,0.034-0.131,0.057-0.272,0.057
	c-0.079,0-0.276-0.021-0.59-0.057c-0.608-0.063-1.084-0.102-1.435-0.102l-1.869,0.078l-1.11-0.029c-0.071,0-0.277,0-0.622,0.018
	v-0.271l1.38-0.273c0.224-0.061,0.356-0.123,0.412-0.186c0.071-0.099,0.104-0.293,0.104-0.58c0-0.07,0-0.2,0.014-0.416
	c0.004-0.152,0.015-0.352,0.015-0.625c0-0.829-0.045-2.598-0.116-5.323c-0.025-1.272-0.039-2.563-0.039-3.88v-0.182
	c0-0.5-0.082-0.828-0.235-0.966c-0.263-0.228-0.913-0.425-1.96-0.575c-0.034-0.078-0.061-0.141-0.061-0.186
	C176.096,90.688,176.12,90.621,176.166,90.549z"/>
<path style="fill:#58595B;" d="M186.708,103.746c0.108-0.061,0.188-0.096,0.269-0.096h0.244c0.051,0,0.129,0,0.256-0.002
	c0.541-0.043,0.857-0.099,0.959-0.146c0.254-0.13,0.457-0.363,0.635-0.7c0.375-0.719,0.791-1.737,1.246-3.069
	c0.217-0.625,0.361-1.013,0.418-1.141c0.176-0.433,0.352-0.869,0.506-1.336l1.004-2.798c0.148-0.435,0.525-1.437,1.122-3.004
	c0.139-0.405,0.327-0.937,0.53-1.595l0.315-0.021l0.372,0.013c0.307,0.596,0.572,1.244,0.807,1.944
	c0.125,0.353,0.336,0.911,0.631,1.64l1.604,4.355l0.86,2.368c0.461,1.345,0.759,2.162,0.895,2.473
	c0.143,0.312,0.27,0.515,0.391,0.616c0.032,0.021,0.17,0.076,0.402,0.124c0.227,0.06,0.383,0.096,0.485,0.13
	c0.317,0.094,0.536,0.166,0.664,0.232c0.034,0.08,0.052,0.135,0.052,0.188c0,0.027-0.009,0.086-0.025,0.144
	c-0.242,0.012-0.39,0.02-0.485,0.02c-0.363,0-0.999-0.02-1.913-0.031l-1.051-0.021l-1.289,0.007c-0.086,0-0.176,0-0.264-0.003
	c-0.076-0.004-0.156-0.01-0.222-0.01h-0.242c-0.073-0.006-0.147-0.035-0.212-0.069c0-0.097,0.027-0.192,0.055-0.29
	c0.084-0.034,0.168-0.063,0.234-0.072l1.115-0.066c0.285-0.012,0.509-0.062,0.66-0.123c0.039-0.131,0.062-0.219,0.062-0.29
	c0-0.124-0.091-0.459-0.267-0.982c-0.137-0.358-0.244-0.696-0.344-1.013c-0.1-0.322-0.469-1.373-1.127-3.143
	c-0.289-0.053-0.545-0.08-0.766-0.08l-2.271,0.027l-0.664-0.016c-0.235,0-0.5,0.016-0.801,0.05
	c-0.091,0.216-0.149,0.367-0.179,0.451l-0.935,2.921c-0.396,1.113-0.596,1.725-0.596,1.84c0,0.063,0.037,0.167,0.096,0.318
	c0.147,0.045,0.349,0.078,0.592,0.117l1.443,0.127c0.082,0.063,0.123,0.113,0.123,0.173c0,0.038-0.02,0.083-0.03,0.157
	c-0.324,0-0.57,0-0.74,0c-0.563,0-1.218-0.012-1.972-0.039c-0.342-0.018-0.596-0.024-0.735-0.024c-0.151,0-0.41,0.007-0.776,0.024
	c-0.244,0.01-0.412,0.013-0.531,0.013c-0.166,0-0.385-0.003-0.646-0.03v-0.063C186.67,103.9,186.68,103.831,186.708,103.746z
	 M191.771,97.376c0.756,0.05,1.617,0.069,2.592,0.069c0.544,0,1.035-0.02,1.453-0.057c-0.074-0.273-0.154-0.535-0.248-0.773
	c-0.451-1.227-0.719-1.907-0.766-2.032l-0.958-2.45l-0.104-0.201c-0.048,0.094-0.202,0.465-0.47,1.107
	c-0.457,1.102-0.783,1.959-0.981,2.575c-0.091,0.27-0.183,0.542-0.29,0.821c-0.091,0.271-0.16,0.459-0.179,0.563
	c-0.031,0.117-0.065,0.229-0.116,0.338L191.771,97.376z"/>
<path style="fill:#58595B;" d="M202.38,91.107l-0.017-0.506c1.095,0,1.896-0.026,2.412-0.086c0.199-0.021,0.33-0.031,0.41-0.031
	c0.066,0,0.151,0.004,0.283,0.011c0.301,0.25,0.579,0.522,0.829,0.853c0.058,0.057,0.125,0.135,0.19,0.211l2.24,2.465l0.33,0.39
	c0.442,0.528,0.852,0.983,1.229,1.353c0.365,0.379,1.096,1.156,2.165,2.351l2.539,2.811c0.245,0.271,0.567,0.618,0.959,1.023
	l0.006-0.166c-0.045-0.985-0.067-1.501-0.067-1.569l0.045-0.628l-0.022-0.994v-0.456c0-0.296-0.022-1.186-0.075-2.683
	c0-0.22-0.034-0.601-0.082-1.173c-0.054-0.564-0.083-1.064-0.083-1.494c0-0.78-0.032-1.229-0.128-1.355
	c-0.064-0.097-0.367-0.19-0.913-0.285c-0.114-0.012-0.315-0.035-0.593-0.065c-0.307-0.022-0.497-0.032-0.557-0.063
	c-0.047-0.019-0.107-0.069-0.164-0.177c0.004-0.103,0.039-0.22,0.09-0.321c0.193-0.052,0.386-0.074,0.562-0.074
	c0.205,0,0.443,0.022,0.742,0.07c0.292,0.059,0.55,0.075,0.786,0.075c0.328,0,0.837-0.017,1.52-0.071
	c0.383-0.024,0.66-0.037,0.805-0.037h0.184l-0.02,0.33c-0.116,0.045-0.277,0.076-0.469,0.086c-0.205,0.01-0.393,0.049-0.551,0.095
	c-0.267,0.08-0.402,0.142-0.466,0.198c-0.164,0.188-0.255,0.375-0.255,0.568l0.123,3.342l0.086,1.547l-0.02,0.441l0.064,2.137
	c0.051,1.457,0.068,2.719,0.068,3.797c0,0.228-0.006,0.74-0.039,1.52l-0.498,0.037c-0.252-0.279-1.098-1.171-2.557-2.669
	c-0.341-0.343-0.574-0.591-0.693-0.728l-0.908-1.057c-0.363-0.396-0.588-0.643-0.688-0.743c-0.108-0.104-0.188-0.188-0.244-0.233
	c-0.762-0.875-1.77-1.969-2.998-3.286c-0.334-0.361-0.822-0.911-1.469-1.652c-0.41-0.489-0.654-0.767-0.758-0.876
	c-0.109-0.105-0.252-0.232-0.438-0.369l-0.028,0.369c0,1.38,0.028,3.286,0.097,5.714l0.081,3.502
	c0.007,0.302,0.017,0.585,0.052,0.864l0.367,0.083c0.676,0.063,1.331,0.149,2,0.278c0.039,0.052,0.083,0.08,0.118,0.101
	l-0.014,0.406c-0.104,0.042-0.196,0.057-0.277,0.057c-0.069,0-0.166-0.006-0.291-0.022c-0.688-0.063-1.546-0.086-2.552-0.086
	c-0.71,0-1.326,0.018-1.862,0.052l-0.151,0.017c-0.069,0-0.156-0.003-0.277-0.027l-0.016-0.318l0.275-0.125l0.505-0.07
	c0.446-0.07,0.771-0.14,0.976-0.216c0.139-0.054,0.242-0.116,0.332-0.221c0.074-0.492,0.117-1.201,0.117-2.138
	c0-0.443-0.016-1.244-0.043-2.42V97.33l-0.016-3.016c-0.006-1.347-0.057-2.135-0.136-2.385c-0.045-0.119-0.123-0.244-0.267-0.332
	c-0.262-0.195-0.625-0.315-1.056-0.356C202.789,91.191,202.493,91.146,202.38,91.107z"/>
<path style="fill:#58595B;" d="M219.766,92.095l0.44-1.6c0.024-0.209,0.06-0.353,0.11-0.413c0.057-0.055,0.105-0.086,0.166-0.086
	c0.136,0,0.277,0.146,0.436,0.451c0.123,0.224,0.216,0.365,0.305,0.42c0.076,0.059,0.198,0.105,0.338,0.127l0.103-0.014l0.457,0.037
	l2.513,0.043l2.953-0.011h0.87l1.646-0.032c0.078,0,0.156,0,0.26,0.022c0.484,0.042,0.787,0.058,0.892,0.058
	c0.114,0,0.206-0.029,0.267-0.104c0.019-0.021,0.129-0.256,0.342-0.704c0.091-0.198,0.199-0.294,0.337-0.294
	c0.065,0,0.134,0.018,0.213,0.048c0.037,0.14,0.057,0.255,0.057,0.372l-0.016,0.417l0.016,0.899c0,0.218-0.02,0.92-0.057,2.102
	c0,0.086-0.006,0.156-0.042,0.209c-0.072,0.053-0.146,0.078-0.203,0.078c-0.048,0-0.107-0.025-0.145-0.083
	c-0.043-0.04-0.098-0.205-0.162-0.481c-0.139-0.644-0.318-1.086-0.524-1.357c-0.14-0.182-0.354-0.297-0.606-0.387
	c-0.273-0.068-0.906-0.117-1.916-0.117c-0.808,0-1.396,0-1.795,0c-0.013,0.291-0.016,0.548-0.016,0.789l0.083,6.595
	c0,0.255-0.012,0.757-0.039,1.478l0.013,1.413l-0.013,0.79c0,0.249,0.039,0.43,0.118,0.54c0.097,0.097,0.324,0.192,0.705,0.298
	c0.646,0.168,1.082,0.264,1.293,0.305c0.143,0.007,0.25,0.039,0.335,0.078v0.324l-1.504-0.045c-0.838-0.006-1.459-0.023-1.874-0.046
	l-1.547,0.074l-1.139,0.069c-0.313,0-0.51-0.008-0.58-0.019l-0.15-0.067c0.021-0.162,0.051-0.268,0.094-0.319
	c0.051-0.042,0.18-0.084,0.391-0.103c0.302-0.049,0.647-0.123,1.057-0.23c0.4-0.115,0.667-0.221,0.799-0.342
	c0.064-0.06,0.116-0.164,0.137-0.312c0.082-0.315,0.1-0.929,0.1-1.842v-1.802l-0.041-3.932l-0.034-0.855l-0.024-2.837
	c-0.429,0-1.01,0-1.695,0c-1.027,0-1.646,0.081-1.855,0.196c-0.354,0.187-0.87,0.754-1.558,1.69
	c-0.229,0.342-0.425,0.521-0.595,0.521l-0.086-0.021c-0.037-0.045-0.051-0.085-0.051-0.12c0-0.088,0.061-0.346,0.161-0.761
	C219.646,92.65,219.734,92.288,219.766,92.095z"/>
<path style="fill:#58595B;" d="M234.284,97.309c0-0.722,0.09-1.369,0.26-1.931c0.172-0.556,0.467-1.164,0.873-1.833
	c0.418-0.654,0.903-1.204,1.491-1.643c0.578-0.447,1.381-0.834,2.404-1.174c0.718-0.232,1.625-0.354,2.737-0.354
	c0.745,0,1.472,0.094,2.181,0.295c0.709,0.196,1.359,0.482,1.937,0.83c0.58,0.359,1.164,0.896,1.731,1.629
	c0.403,0.518,0.711,1.064,0.912,1.653c0.28,0.772,0.414,1.565,0.414,2.383c0,0.933-0.092,1.709-0.275,2.321
	c-0.176,0.619-0.479,1.232-0.908,1.83c-0.33,0.468-0.898,1.004-1.701,1.607c-0.538,0.415-1.206,0.743-2.013,0.998
	c-0.8,0.245-1.652,0.381-2.583,0.381c-0.941,0-1.788-0.109-2.51-0.336c-0.75-0.221-1.356-0.484-1.842-0.8
	c-0.5-0.324-1.004-0.772-1.524-1.392c-0.522-0.612-0.908-1.295-1.169-2.043C234.417,98.986,234.284,98.182,234.284,97.309z
	 M241.646,103.907c0.592,0,1.217-0.095,1.854-0.259c0.642-0.157,1.206-0.434,1.701-0.821c0.499-0.394,0.875-0.824,1.157-1.312
	c0.285-0.494,0.5-1.132,0.674-1.904c0.167-0.764,0.258-1.534,0.258-2.303c0-0.965-0.148-1.914-0.432-2.857
	c-0.215-0.721-0.567-1.348-1.063-1.919c-0.486-0.558-1.09-0.996-1.795-1.306c-0.7-0.305-1.458-0.455-2.24-0.455
	c-0.646,0-1.271,0.097-1.889,0.313c-0.609,0.204-1.128,0.486-1.521,0.816c-0.391,0.324-0.756,0.793-1.104,1.397
	c-0.333,0.607-0.591,1.271-0.772,2.004c-0.17,0.732-0.265,1.368-0.265,1.929c0,0.586,0.095,1.252,0.265,1.996
	c0.182,0.743,0.424,1.383,0.729,1.937c0.31,0.537,0.688,1.022,1.133,1.446c0.449,0.416,0.953,0.733,1.517,0.961
	C240.416,103.791,241.007,103.907,241.646,103.907z"/>
<path style="fill:#58595B;" d="M259.236,90.994c0.064,0.46,0.092,0.738,0.092,0.807l-0.044,0.939
	c-0.015,0.406-0.032,0.673-0.058,0.773c-0.064,0.03-0.112,0.047-0.151,0.047l-0.104-0.02c-0.218-0.982-0.609-1.707-1.14-2.167
	c-0.543-0.451-1.204-0.687-1.988-0.687c-0.806,0-1.468,0.235-1.981,0.687c-0.524,0.46-0.769,0.981-0.769,1.573
	c0,0.471,0.173,0.885,0.531,1.267c0.366,0.386,1.288,0.958,2.772,1.726c1.127,0.574,1.939,1.057,2.434,1.431
	c0.488,0.368,0.857,0.798,1.1,1.286c0.252,0.49,0.377,1.035,0.377,1.634c0,0.76-0.205,1.476-0.592,2.134
	c-0.391,0.67-0.925,1.172-1.589,1.51c-0.666,0.334-1.55,0.504-2.642,0.504c-0.952,0-1.863-0.157-2.746-0.459
	c-0.521-0.181-0.834-0.34-0.946-0.443c-0.117-0.107-0.17-0.23-0.17-0.363c0-0.079,0.015-0.176,0.024-0.295
	c0.106-0.84,0.154-1.521,0.157-2.066c0.015-0.324,0.037-0.521,0.076-0.584c0.024-0.039,0.085-0.067,0.16-0.067
	c0.062,0,0.118,0.028,0.151,0.063c0.047,0.058,0.063,0.137,0.082,0.264c0.069,0.869,0.473,1.647,1.209,2.334
	c0.716,0.695,1.539,1.025,2.453,1.025c0.551,0,1.066-0.113,1.534-0.346c0.476-0.236,0.843-0.566,1.113-1.016
	c0.258-0.448,0.388-0.875,0.388-1.288c0-0.573-0.199-1.095-0.603-1.567c-0.411-0.479-1.208-1.027-2.425-1.667
	c-1.213-0.628-2.014-1.088-2.383-1.377c-0.59-0.478-1.039-0.974-1.324-1.51c-0.23-0.409-0.332-0.884-0.332-1.433
	c0-0.98,0.386-1.811,1.158-2.498c0.779-0.688,1.828-1.024,3.131-1.024c0.717,0,1.341,0.075,1.875,0.241
	C258.454,90.495,258.829,90.71,259.236,90.994z"/>
<path style="fill:#58595B;" d="M262.752,97.309c0-0.722,0.085-1.369,0.26-1.931c0.184-0.556,0.461-1.164,0.877-1.833
	c0.414-0.654,0.901-1.204,1.48-1.643c0.594-0.447,1.391-0.834,2.419-1.174c0.715-0.232,1.632-0.354,2.737-0.354
	c0.736,0,1.462,0.094,2.174,0.295c0.708,0.196,1.355,0.482,1.938,0.83c0.578,0.359,1.157,0.896,1.75,1.629
	c0.396,0.518,0.694,1.064,0.912,1.653c0.256,0.772,0.396,1.565,0.396,2.383c0,0.933-0.086,1.709-0.271,2.321
	c-0.184,0.619-0.49,1.232-0.908,1.83c-0.324,0.468-0.901,1.004-1.711,1.607c-0.531,0.415-1.211,0.743-2.002,0.998
	c-0.795,0.245-1.664,0.381-2.586,0.381c-0.939,0-1.779-0.109-2.516-0.336c-0.736-0.221-1.354-0.484-1.84-0.8
	c-0.497-0.324-1-0.772-1.516-1.392c-0.522-0.612-0.916-1.295-1.189-2.043C262.895,98.986,262.752,98.182,262.752,97.309z
	 M270.123,103.907c0.595,0,1.214-0.095,1.833-0.259c0.653-0.157,1.215-0.434,1.718-0.821c0.491-0.394,0.879-0.824,1.167-1.312
	c0.273-0.494,0.494-1.132,0.664-1.904c0.173-0.764,0.265-1.534,0.265-2.303c0-0.965-0.15-1.914-0.435-2.857
	c-0.216-0.721-0.574-1.348-1.065-1.919c-0.492-0.558-1.099-0.996-1.791-1.306c-0.703-0.305-1.449-0.455-2.242-0.455
	c-0.651,0-1.273,0.097-1.887,0.313c-0.617,0.204-1.127,0.486-1.529,0.816c-0.391,0.324-0.746,0.793-1.086,1.397
	c-0.349,0.607-0.607,1.271-0.784,2.004c-0.177,0.732-0.267,1.368-0.267,1.929c0,0.586,0.088,1.252,0.267,1.996
	c0.176,0.743,0.414,1.383,0.727,1.937c0.306,0.537,0.693,1.022,1.134,1.446c0.457,0.416,0.967,0.733,1.506,0.961
	C268.891,103.791,269.48,103.907,270.123,103.907z"/>
<path style="fill:#58595B;" d="M111.198,70.65v1h-2.622v1.259h2.281v0.926h-2.281v2.25h-1.198V70.65H111.198z"/>
<path style="fill:#58595B;" d="M118.17,75.67c-0.407,0.352-0.981,0.53-1.707,0.53c-0.73,0-1.306-0.179-1.704-0.525
	c-0.404-0.362-0.61-0.909-0.61-1.64V70.65h1.189v3.385c0,0.142,0.022,0.281,0.045,0.431c0.032,0.142,0.079,0.267,0.159,0.384
	c0.085,0.104,0.196,0.188,0.341,0.252c0.147,0.075,0.336,0.107,0.579,0.107c0.424,0,0.722-0.098,0.888-0.29
	c0.158-0.187,0.24-0.478,0.24-0.885V70.65h1.189v3.385C118.781,74.766,118.58,75.307,118.17,75.67z"/>
<path style="fill:#58595B;" d="M123.275,70.65l2.27,3.641h0.013V70.65h1.126v5.437h-1.199l-2.257-3.636h-0.013v3.636h-1.116V70.65
	H123.275z"/>
<path style="fill:#58595B;" d="M132.353,70.65c0.35,0,0.676,0.06,0.985,0.17c0.296,0.117,0.556,0.279,0.768,0.506
	c0.231,0.219,0.395,0.5,0.522,0.832c0.133,0.338,0.187,0.729,0.187,1.183c0,0.394-0.049,0.747-0.148,1.091
	c-0.103,0.334-0.263,0.625-0.47,0.857c-0.199,0.25-0.45,0.441-0.764,0.59c-0.298,0.133-0.665,0.207-1.08,0.207h-2.343V70.65H132.353
	z M132.268,75.079c0.169,0,0.339-0.028,0.5-0.085c0.171-0.057,0.305-0.145,0.438-0.279c0.131-0.13,0.222-0.29,0.303-0.503
	c0.077-0.212,0.119-0.459,0.119-0.762c0-0.273-0.032-0.517-0.081-0.75c-0.058-0.212-0.148-0.408-0.269-0.556
	c-0.125-0.16-0.279-0.285-0.485-0.363c-0.193-0.073-0.441-0.131-0.745-0.131h-0.84v3.43L132.268,75.079L132.268,75.079z"/>
<path style="fill:#58595B;" d="M140.641,70.65l2.026,5.437h-1.24l-0.401-1.211h-2.047l-0.423,1.211h-1.201l2.06-5.437H140.641z
	 M140.699,73.982l-0.675-1.998h-0.012l-0.717,1.998H140.699z"/>
<path style="fill:#58595B;" d="M148.907,72.104c-0.075-0.119-0.154-0.215-0.267-0.301c-0.104-0.083-0.228-0.158-0.373-0.199
	c-0.125-0.054-0.266-0.07-0.422-0.07c-0.262,0-0.484,0.04-0.671,0.148c-0.192,0.11-0.345,0.25-0.452,0.422
	c-0.121,0.17-0.212,0.375-0.256,0.597c-0.063,0.227-0.086,0.46-0.086,0.688c0,0.227,0.023,0.448,0.086,0.663
	c0.044,0.218,0.137,0.421,0.256,0.595c0.107,0.166,0.26,0.309,0.452,0.41c0.187,0.098,0.409,0.154,0.671,0.154
	c0.367,0,0.652-0.113,0.861-0.335c0.213-0.228,0.339-0.517,0.376-0.883h1.168c-0.045,0.339-0.116,0.653-0.243,0.911
	c-0.131,0.283-0.292,0.522-0.49,0.703c-0.223,0.203-0.459,0.351-0.746,0.442c-0.273,0.109-0.586,0.151-0.926,0.151
	c-0.412,0-0.785-0.068-1.111-0.208c-0.34-0.146-0.609-0.349-0.84-0.603c-0.231-0.261-0.402-0.541-0.525-0.896
	c-0.13-0.333-0.178-0.71-0.178-1.106c0-0.397,0.048-0.785,0.178-1.125c0.123-0.352,0.293-0.646,0.525-0.908
	c0.23-0.256,0.5-0.455,0.84-0.604c0.326-0.157,0.699-0.219,1.111-0.219c0.313,0,0.596,0.04,0.855,0.118
	c0.275,0.092,0.501,0.214,0.722,0.382c0.205,0.168,0.369,0.374,0.517,0.604c0.131,0.253,0.229,0.532,0.268,0.843h-1.161
	C149.02,72.35,148.98,72.217,148.907,72.104z"/>
<path style="fill:#58595B;" d="M154.527,70.65v5.437h-1.197V70.65H154.527z"/>
<path style="fill:#58595B;" d="M157.805,72.264c0.125-0.353,0.301-0.647,0.527-0.91c0.229-0.254,0.51-0.453,0.828-0.604
	c0.346-0.157,0.722-0.219,1.139-0.219c0.412,0,0.801,0.062,1.119,0.219c0.333,0.15,0.609,0.35,0.84,0.604
	c0.221,0.263,0.406,0.558,0.528,0.91c0.123,0.34,0.176,0.727,0.176,1.123c0,0.397-0.054,0.774-0.176,1.107
	c-0.122,0.355-0.31,0.635-0.528,0.896c-0.229,0.252-0.507,0.457-0.84,0.602c-0.318,0.14-0.708,0.208-1.119,0.208
	c-0.417,0-0.792-0.068-1.139-0.208c-0.318-0.145-0.598-0.35-0.828-0.602c-0.227-0.262-0.402-0.543-0.527-0.896
	c-0.121-0.333-0.177-0.71-0.177-1.107C157.628,72.99,157.684,72.604,157.805,72.264z M158.902,74.051
	c0.057,0.219,0.134,0.422,0.252,0.594c0.121,0.168,0.267,0.31,0.449,0.412c0.188,0.096,0.431,0.153,0.694,0.153
	c0.265,0,0.491-0.058,0.677-0.153c0.188-0.103,0.35-0.244,0.457-0.412c0.113-0.172,0.205-0.375,0.262-0.594
	c0.052-0.215,0.074-0.438,0.074-0.664s-0.022-0.46-0.074-0.688c-0.057-0.221-0.148-0.426-0.262-0.596
	c-0.107-0.174-0.269-0.313-0.457-0.424c-0.186-0.107-0.412-0.147-0.677-0.147c-0.264,0-0.507,0.04-0.694,0.147
	c-0.183,0.111-0.328,0.25-0.449,0.424c-0.118,0.17-0.195,0.375-0.252,0.596c-0.061,0.227-0.084,0.46-0.084,0.688
	S158.842,73.836,158.902,74.051z"/>
<path style="fill:#58595B;" d="M167.246,70.65l2.265,3.641h0.013V70.65h1.117v5.437h-1.191l-2.26-3.636h-0.018v3.636h-1.117V70.65
	H167.246z"/>
</svg>
