<?xml version="1.0" encoding="iso-8859-1"?>
<!-- Generator: Adobe Illustrator 15.0.2, SVG Export Plug-In . SVG Version: 6.00 Build 0)  -->
<!DOCTYPE svg PUBLIC "-//W3C//DTD SVG 1.1//EN" "http://www.w3.org/Graphics/SVG/1.1/DTD/svg11.dtd">
<svg version="1.1" id="Layer_1" xmlns="http://www.w3.org/2000/svg" xmlns:xlink="http://www.w3.org/1999/xlink" x="0px" y="0px"
	 width="354px" height="63px" viewBox="0 0 354 63" style="enable-background:new 0 0 354 63;" xml:space="preserve">
<path style="fill:#B61E2D;" d="M2,31.298C2,15.119,23.535,2,50.107,2C76.672,2,98.21,15.119,98.21,31.298
	c0,16.188-21.537,29.31-48.103,29.31C23.535,60.605,2,47.486,2,31.298z"/>
<line style="fill:none;stroke:#B61E2D;stroke-width:0.4764;" x1="352" y1="21.521" x2="110.96" y2="21.521"/>
<path style="fill:#FFFFFF;" d="M9.918,31.298c0-12.672,17.991-22.942,40.189-22.942c22.194,0,40.202,10.27,40.202,22.942
	c0,12.671-18.008,22.947-40.202,22.947C27.909,54.245,9.918,43.969,9.918,31.298z"/>
<path style="fill:#B61E2D;" d="M63.071,23.116c-1.533,0.159-4.49,0-4.49,0s-2.858-1.465-3.506-1.873
	c-0.625-0.412-2.364-1.471-2.364-1.471h-3.469c0,0-2.267-0.067-2.84,0.168c-0.581,0.244-1.296,0.891-1.296,0.891
	s-1.48,0.491-2.366,0.82c-0.877,0.333-2.098,0.89-2.098,0.89s-0.549,0.137-1.532-0.253c-0.991-0.395-1.574-0.966-2.457-0.966
	c-0.88,0-1.783-0.079-1.783-0.079l-0.891,0.238c0,0-0.718-0.958-1.374-1.207c-0.665-0.251-1.805-0.569-2.286-0.569
	c-0.468,0-1.209-0.09-1.209-0.09s-0.025-0.977-0.585-1.046c-0.548-0.085-6.886-0.99-6.886-0.99l-0.16,1.313l5.51,0.813
	c0,0,0.331,0.174,0.412,0.569c0.084,0.389,0.084,2.899,0.084,3.637c0,0.744-0.496,3.743-0.496,3.743s-0.133,1.625-0.302,2.759
	c-0.177,1.132-0.177,1.694-0.259,2.114c-0.065,0.414-0.159,1.08-0.159,1.625c0,0.558-0.237,3.029-0.328,3.328
	c-0.086,0.313-0.803,2.119-0.881,2.681c-0.085,0.549-0.826,2.097-0.826,2.51c0,0.408,0.222,0.67-0.167,0.901
	c-0.377,0.228-1.529,0.562-1.529,0.562l-1.628,0.33l0.245,0.956c0,0,1.981,0,2.446,0.166c0.466,0.167,0.958,0.387,1.134-0.166
	c0.157-0.555,0.325-1.766,0.325-1.766h1.209c0,0,0.062,0.582,0.886,0c0.823-0.575,1.713-1.217,2.114-1.953
	c0.417-0.748,1.387-1.729,1.547-2.451c0.166-0.72,0.489-1.289,0.489-1.289s0.325-1.602,0.325-1.934s0.312-1.487,0.312-1.487
	l0.45,0.021c0,0-0.171,1.31,1.181,1.438c1.369,0.144,1.976-0.278,2.013-0.433c0.04-0.142,0.638-0.039,0.638-0.039
	s0.541,0.115,0.687,0.83c0.14,0.717,0.152,1.216,0.65,1.537c0.498,0.326,0.895,0.467,1.253,0.617
	c0.358,0.151,1.106,0.365,1.106,0.365s0.156,0.456,0.656,0.887c0.494,0.432,1.779,1.289,1.972,1.322
	c0.172,0.047,0.642,0.26,0.642,0.26s0.156,1.182,0.639,1.543c0.503,0.357,1.757,1.105,2.123,1.147c0.363,0.03,1.611,0.03,1.611,0.03
	s0.115,0.186,0.367,0.254c0.249,0.072,1.501,0,1.501,0s0.569,0.947,1.292,0.826c0.728-0.104,2.188-0.541,2.614-0.754
	c0.438-0.226,0.83-0.617,0.83-0.617s1.121,0.147,1.647,0.147c0.536,0,1.153-0.313,1.468-0.75c0.34-0.426,0.404-0.755,0.404-0.755
	s1.04,0.137,1.654-0.143c0.604-0.278,0.921-0.789,1.034-1.043c0.099-0.248,0.099-0.322,0.099-0.322s1.25,0.115,2.271-0.497
	c1.008-0.622,1.212-0.765,1.28-1.117c0.079-0.346,0.04-1.358,0.04-1.358s0.54-0.207,0.972-0.431c0.438-0.21,0.755-0.644,1.052-0.644
	c0.265,0,0.745,0.107,0.745,0.107s0.379,1.651,0.379,2.691c0,1.038,0.118,2.717,0.216,3.044c0.113,0.323,1.017,2.325,1.837,2.528
	c0.822,0.211,5.763,0.844,7.638-4.66l2.052-0.913l-0.051-1.547L76.9,38.575v-0.073c0,0-0.164-0.279-0.137-0.385
	c0.039-0.106-0.404-0.715-0.318-1.684c0.075-0.981-0.194-2.65-0.194-2.65l2.592-0.709l-0.208-1.836l-2.457,0.603
	c0,0-0.497-0.37-0.637-1.228c-0.145-0.853-0.779-4.19-1.042-4.717c-0.248-0.533-1.36-3.895-1.36-3.895s-1.257,0.608-0.707,0.318
	c0.653-0.318-0.192,0.15,0.245-0.063c0.42-0.203,1.114-0.676,1.114-0.676s2.61,0.183,3.115,0.115
	c0.505-0.077,1.406-0.721,1.406-0.721l-0.15-1.655l-0.592,0.05c0,0-3.25,0.571-3.568,0.815c-0.336,0.249-0.584,0.317-1.24,0.402
	c-0.67,0.075-1.948-1.365-1.948-1.365c-1.551-0.835-6.337,0.976-6.337,0.976s-0.553,0.378-0.638,2.843"/>
<path style="fill:#FFFFFF;" d="M72.564,44.139c0.245-0.762,3.301-1.566,2.978-4.144c-0.104-0.837-0.654-4.25-0.654-4.858
	c0-0.597-0.214-2.74-0.5-3.681c-0.316-0.957-0.403-2.376-0.663-2.913c-0.246-0.533-0.56-1.847-0.962-2.787
	c-0.399-0.94-0.635-1.877-0.785-2.136c-0.147-0.244-1.619-2.449-1.619-2.449l-2.059-0.26c-0.351-0.06-2.398,0.508-2.398,0.508
	l-0.319,1.812c0,0,0.904,1.125,1.051,1.91c0.159,0.783,0.444,1.897,0.444,3.183c0,1.298-0.106,2.245,0,2.996
	c0.103,0.721,0.444,3.028,0.554,4.12c0.095,1.095,0.353,1.836,0.396,2.987c0.057,1.136-0.078,1.452,0.359,2.242
	c0.437,0.784,0.158,2.103,0.158,2.103s0.875,1.412,1.432,1.369C70.529,44.083,72.564,44.139,72.564,44.139z"/>
<path style="fill:#FFFFFF;" d="M66.686,35.232l-0.8-3.973c0,0-0.295-1.494-0.385-2c-0.104-0.5-0.458-0.937-0.458-2.092
	c0-1.143,0.05-2.123-0.103-2.427c-0.146-0.307-0.534-0.506-1.085-0.352c-0.55,0.144-0.085,0.305-1.538,0.454
	c-1.468,0.154-2.583-0.149-3.39-0.311c-0.8-0.144-3.344-1.56-4.141-2.042c-0.78-0.484-2.978-1.921-2.978-1.921
	s-3.829,0.073-4.131,0.182c-0.299,0.096-1.333,0-1.691,0.253c-0.352,0.249-0.686,0.982-0.989,1.547
	c-0.302,0.541-0.636,0.745-1.186,0.851c-0.557,0.094-0.945,0.25-1.44,0.25c-0.509,0-0.962-0.059-0.962-0.059s0.07,1.697,2.093,1.646
	c2.028-0.051,3.375-0.5,3.778-0.959c0.397-0.443,0.453-1.536,0.453-1.536s0.196,0.371,0.299,0.751
	c0.097,0.383,0.205,0.893,0.205,0.893s1.247,0.41,1.649,0.454c0.386,0.052,0.497,0.251,1.185,0.297
	c0.689,0.049,2.186-0.399,2.186-0.399s-0.396,0.386-0.443,0.785c-0.05,0.397-0.237,0.397,0.204,0.705
	c0.433,0.299,2.398,1.928,2.883,2.587c0.487,0.654,1.146,1.441,1.334,1.597c0.205,0.142,0.341,0.142,0.794,0.142
	c0.445,0,1.081-0.487,1.434-1.084c0.362-0.604,0.608-1.343,0.608-1.343s-0.101,1.37-0.408,1.927
	c-0.296,0.546-0.783,0.762-0.84,1.147c-0.047,0.387-0.15,0.746,0.165,0.798c0.299,0.038,0.919-0.309,1.329-0.411
	c0.409-0.097,0.841-0.221,0.841-0.221s-1.086,0.425-1.25,0.938c-0.142,0.498-0.336,0.432-0.181,0.881
	c0.136,0.449,3.125,3.386,3.125,3.386s0.164,0.251,0.802,0.296c0.642,0.058,1.159-0.15,1.601-0.49
	C65.68,36.043,66.686,35.232,66.686,35.232z"/>
<path style="fill:#FFFFFF;" d="M41.667,22.844c0,0,0.586-0.365,1.342-0.603c0.748-0.235,1.889-0.59,1.889-0.59
	s-0.064,1.046-0.702,1.35c-0.649,0.296-1.678,0.296-2.031,0.249C41.815,23.208,41.667,22.844,41.667,22.844z"/>
<path style="fill:#FFFFFF;" d="M58.328,32.755c1.397,1.345,2.935,3.371,3.187,3.974c0.243,0.608,0.564,0.989,0.802,1.188
	c0.237,0.201,0.635,0,0.783,0.3c0.154,0.304,0.301,0.851-0.097,1.042c-0.408,0.202-1.634-0.238-2.476-0.738
	c-0.864-0.5-2.729-1.401-3.337-2.045c-0.607-0.636-1.392-1.144-1.637-1.539c-0.263-0.408-0.599-0.436-0.939-0.998
	c-0.362-0.547-1.017-1.836-1.017-1.836s0.16,1.659,0.409,2.098c0.246,0.426,1.659,1.773,2.144,2.273
	c0.493,0.5,2.848,2.938,3.135,3.291c0.285,0.346,1.012,1.09,0.233,1.443c-0.795,0.344-1.303,0.191-1.642,0.039
	c-0.329-0.141-1.079-1.401-1.78-1.889c-0.704-0.485-2.729-1.883-3.13-2.021c-0.41-0.154-0.96-0.305-0.96-0.305
	s1.096,1.551,1.494,1.841c0.397,0.286,2.063,1.576,2.5,2.081c0.432,0.499,0.879,0.607,0.785,1.1
	c-0.096,0.484-0.488,0.484-1.093,0.484c-0.602,0-1.635-0.279-1.936-0.682c-0.307-0.403-1.142-0.989-1.54-1.246
	c-0.409-0.25-1.166-0.445-1.649-0.641c-0.49-0.205-1.006-0.949-1.545-1.244c-0.54-0.299-1.848-0.149-1.848-0.149
	s0.659,0.885,0.659,1.137c0,0.257,0.438,0.702,0.096,0.754c-0.347,0.041-0.47-0.157-0.803-0.452
	c-0.341-0.302-1.196-1.238-1.196-1.238s-0.047-1.096-0.249-1.744c-0.189-0.652-0.629-1.096-0.629-1.096s0.092,0.547-0.106,1.297
	c-0.201,0.733-0.201,1.129-0.201,1.129h-0.5c0,0,0.5-0.98,0.197-1.582c-0.303-0.608-0.753-0.993-1.434-1.102
	c-0.696-0.093-2.235,0-2.235,0s-0.705-0.813-0.951-1.101c-0.255-0.276-0.89-0.253-1.193-0.05c-0.303,0.199-0.709,0.199-0.709,0.199
	s-1.086-1.188-2.271-1.432c-1.193-0.256-4.184-0.798-4.184-0.798l0.64-2.195c0,0,0.893-2.446,1.144-3.38
	c0.245-0.937,0.494-1.442,0.494-2.389v-2.087c0,0-0.024-0.693,0.91-0.539c0.942,0.147,1.941,0.743,2.932,1.042
	c0.986,0.301,1.828,0.068,2.531,0.705c0.703,0.628,1.339,2.27,2.933,2.372c1.599,0.104,2.801-0.208,3.442-0.599
	c0.633-0.38,1.176-0.627,2.126-0.428c0.958,0.192,2.517,0.588,2.803,0.892C51.709,26.185,58.328,32.755,58.328,32.755z"/>
<path style="fill:#FFFFFF;" d="M39.287,35.131c0.578,0.199,1.23,0.592,0.931,1.248c-0.301,0.652-0.991,0.652-1.538,0.4
	c-0.543-0.248-1.124-0.736-0.942-1.297C37.92,34.936,39.287,35.131,39.287,35.131z"/>
<path style="fill:#FFFFFF;" d="M43.009,36.075c0.445,0.304,1.237,0.618,1.131,1.307c-0.099,0.687-0.083,1.044-0.434,1.093
	c-0.344,0.045-0.925-0.111-1.249-0.357c-0.345-0.251-0.495-0.399-0.495-0.399s0.107,1.265-0.506,0.96
	c-0.598-0.313-0.552-1.445-0.148-1.949c0.405-0.502,0.519-0.685,0.91-0.685C42.605,36.043,43.009,36.075,43.009,36.075z"/>
<path style="fill:#FFFFFF;" d="M45.635,39.712c0.502,0.397,1.215,0.833,1.057,1.59c-0.154,0.751-0.84,1.06-1.29,0.804
	c-0.456-0.25-1.156-1.141-0.959-1.746c0.207-0.596,0.252-0.696,0.554-0.696C45.301,39.664,45.635,39.712,45.635,39.712z"/>
<path style="fill:#FFFFFF;" d="M49.63,42.747c0,0,0.386-0.591,0.784-0.733c0.396-0.158,0.722-0.404,1.057-0.107
	c0.337,0.302,0.483,0.537,0.688,0.588c0.194,0.043,0.456,0.253,0.302,0.543c-0.149,0.306-0.855,0.707-1.65,0.607
	c-0.784-0.093-1.18-0.302-1.234-0.498C49.528,42.941,49.63,42.747,49.63,42.747z"/>
<path style="fill:#FFFFFF;" d="M26.446,42.443c0,0,0.847-0.107,1.687-1.295c0.845-1.18,1.708-3.045,1.9-5.072
	c0.184-2.031,0.591-3.61,0.733-4.706c0.154-1.111,0.783-6.406,0.942-7.716c0.151-1.308,0.151-2.197,0.151-2.197
	s-1.014-0.407-1.642-0.451c-0.637-0.053-1.446-0.253-1.446-0.253s-0.344,2.018-0.344,2.499c0,0.492,0.057,2.745-0.146,3.233
	c-0.196,0.498-0.596,1.171-0.596,2.186c0,1,0.596,1.357,0.502,2.193c-0.103,0.83-0.603,1.476-0.756,2.325
	c-0.15,0.856-0.393,3.93-0.841,4.929c-0.449,0.999-0.866,2.282-1.111,2.937c-0.228,0.657-0.528,0.666-0.386,1.051
	c0.158,0.39,0.548,0.49,0.847,0.49C26.242,42.595,26.446,42.443,26.446,42.443z"/>
<path style="fill:#9E3137;" d="M42.485,46.669c0,0,0,0.005,0,0.021v2.09c0,0.084,0.016,0.15,0.069,0.169
	c0.039,0.017,0.12,0.034,0.233,0.05v0.036h-0.889v-0.039c0.132-0.013,0.215-0.03,0.254-0.063c0.042-0.035,0.066-0.097,0.066-0.203
	v-1.615c0-0.059-0.018-0.102-0.024-0.129c-0.016-0.021-0.042-0.039-0.087-0.039c-0.033,0-0.061,0.007-0.105,0.024
	c-0.039,0.015-0.086,0.03-0.117,0.044v-0.041l0.573-0.318h0.027C42.485,46.663,42.485,46.669,42.485,46.669"/>
<path style="fill:#9E3137;" d="M47.538,46.952c0.131,0.194,0.195,0.422,0.195,0.684c0,0.165-0.032,0.345-0.081,0.535
	c-0.07,0.181-0.147,0.341-0.273,0.479c-0.122,0.162-0.294,0.293-0.501,0.373c-0.118,0.039-0.247,0.078-0.423,0.102l-0.022-0.068
	c0.106-0.033,0.203-0.059,0.275-0.092c0.127-0.056,0.229-0.13,0.31-0.207c0.109-0.124,0.198-0.248,0.263-0.391
	c0.065-0.151,0.11-0.262,0.129-0.366l-0.055,0.047c-0.084,0.07-0.175,0.104-0.274,0.132C47.027,48.2,46.976,48.2,46.933,48.2
	c-0.186,0-0.315-0.069-0.419-0.214c-0.112-0.139-0.164-0.303-0.164-0.495c0-0.244,0.069-0.452,0.188-0.609
	c0.125-0.157,0.289-0.241,0.474-0.241C47.243,46.645,47.428,46.746,47.538,46.952 M47.271,47.98
	c0.084-0.049,0.132-0.084,0.139-0.112c0.005-0.003,0.008-0.058,0.008-0.13c0.01-0.071,0.01-0.146,0.01-0.178
	c0-0.252-0.049-0.447-0.117-0.591c-0.068-0.153-0.171-0.225-0.315-0.225c-0.112,0-0.192,0.042-0.258,0.149
	c-0.06,0.099-0.091,0.252-0.091,0.463c0,0.166,0.027,0.328,0.091,0.471c0.057,0.152,0.17,0.21,0.324,0.21
	C47.125,48.039,47.202,48.02,47.271,47.98z"/>
<path style="fill:#9E3137;" d="M52.267,46.952c0.131,0.194,0.194,0.422,0.194,0.684c0,0.165-0.027,0.345-0.079,0.535
	c-0.07,0.181-0.155,0.341-0.263,0.479c-0.137,0.162-0.311,0.293-0.514,0.373c-0.109,0.039-0.253,0.078-0.43,0.102l-0.022-0.068
	c0.123-0.033,0.203-0.059,0.277-0.092c0.131-0.056,0.24-0.13,0.313-0.207c0.116-0.124,0.207-0.248,0.264-0.391
	c0.079-0.151,0.112-0.262,0.124-0.366l-0.044,0.047c-0.079,0.07-0.166,0.104-0.277,0.132C51.756,48.2,51.711,48.2,51.66,48.2
	c-0.17,0-0.324-0.069-0.419-0.214c-0.103-0.139-0.157-0.303-0.157-0.495c0-0.244,0.064-0.452,0.178-0.609
	c0.137-0.157,0.296-0.241,0.483-0.241C51.972,46.645,52.152,46.746,52.267,46.952 M52.006,47.98
	c0.079-0.049,0.124-0.084,0.124-0.112c0,0,0.019-0.058,0.019-0.13c0.004-0.071,0.004-0.146,0.004-0.178
	c0-0.252-0.034-0.447-0.117-0.591c-0.063-0.153-0.177-0.225-0.314-0.225c-0.108,0-0.194,0.042-0.25,0.149
	c-0.067,0.099-0.099,0.252-0.099,0.463c0,0.166,0.032,0.328,0.095,0.471c0.06,0.152,0.164,0.21,0.316,0.21
	C51.858,48.039,51.932,48.02,52.006,47.98z"/>
<path style="fill:#9E3137;" d="M56.995,46.952c0.13,0.194,0.194,0.422,0.194,0.684c0,0.165-0.027,0.345-0.093,0.535
	c-0.05,0.181-0.141,0.341-0.253,0.479c-0.136,0.162-0.297,0.293-0.506,0.373c-0.114,0.039-0.268,0.078-0.437,0.102l-0.014-0.068
	c0.115-0.033,0.196-0.059,0.281-0.092c0.125-0.056,0.231-0.13,0.301-0.207c0.114-0.124,0.209-0.248,0.272-0.391
	c0.057-0.151,0.114-0.262,0.114-0.366l-0.04,0.047c-0.074,0.07-0.171,0.104-0.268,0.132c-0.07,0.021-0.113,0.021-0.159,0.021
	c-0.177,0-0.325-0.069-0.42-0.214c-0.109-0.139-0.155-0.303-0.155-0.495c0-0.244,0.059-0.452,0.189-0.609
	c0.12-0.157,0.268-0.241,0.467-0.241C56.708,46.645,56.876,46.746,56.995,46.952 M56.741,47.98c0.074-0.049,0.114-0.084,0.114-0.112
	c0.018-0.003,0.021-0.058,0.021-0.13c0-0.071,0.004-0.146,0.004-0.178c0-0.252-0.037-0.447-0.111-0.591
	c-0.07-0.153-0.188-0.225-0.321-0.225c-0.101,0-0.191,0.042-0.248,0.149c-0.059,0.099-0.099,0.252-0.099,0.463
	c0,0.166,0.04,0.328,0.08,0.471c0.068,0.152,0.183,0.21,0.324,0.21C56.582,48.039,56.653,48.02,56.741,47.98z"/>
<line style="fill:none;stroke:#B61E2D;stroke-width:0.4764;" x1="352" y1="48.28" x2="110.96" y2="48.28"/>
<path style="fill:#58595B;" d="M120.737,29.587c0.076,0.477,0.118,0.964,0.118,1.468c0,0.099-0.007,0.228-0.017,0.396
	c-0.082,0.022-0.145,0.028-0.195,0.028c-0.032,0-0.087,0-0.156-0.022c-0.256-0.719-0.679-1.278-1.273-1.667
	c-0.578-0.383-1.31-0.581-2.172-0.581c-0.461,0-0.841,0.05-1.16,0.154c-0.549,0.192-1.038,0.456-1.462,0.797
	c-0.425,0.337-0.777,0.737-1.062,1.202c-0.298,0.472-0.528,1.037-0.692,1.697c-0.17,0.668-0.262,1.344-0.262,2.032
	c0,1.324,0.199,2.414,0.604,3.278c0.409,0.857,0.958,1.479,1.65,1.846c0.697,0.368,1.4,0.555,2.114,0.555l0.432-0.018
	c0.503-0.059,0.84-0.115,1.017-0.169c0.454-0.131,0.823-0.278,1.11-0.463c0.295-0.173,0.588-0.429,0.862-0.744
	c0.288-0.319,0.52-0.69,0.725-1.121l0.104-0.041c0.043,0,0.08,0.021,0.149,0.054c-0.01,0.149-0.01,0.25-0.016,0.297
	c-0.266,1.035-0.458,1.754-0.566,2.131c-0.103,0.027-0.231,0.066-0.376,0.115c-0.73,0.25-1.691,0.371-2.902,0.371
	c-0.975,0-1.703-0.063-2.188-0.199c-0.486-0.133-1.012-0.334-1.582-0.623c-0.569-0.278-1.076-0.661-1.509-1.111
	c-0.436-0.473-0.784-1.051-1.046-1.762c-0.271-0.704-0.398-1.471-0.398-2.305c0-0.793,0.101-1.483,0.305-2.074
	c0.215-0.59,0.537-1.188,0.978-1.797c0.443-0.603,0.961-1.098,1.556-1.505c0.59-0.404,1.258-0.684,1.986-0.858
	c0.513-0.108,1.231-0.164,2.178-0.164c0.68,0,1.329,0.089,1.94,0.273C120.135,29.235,120.538,29.413,120.737,29.587z"/>
<path style="fill:#58595B;" d="M122.187,40.639c0.088-0.054,0.165-0.086,0.234-0.086h0.213c0.04,0,0.116,0,0.221-0.001
	c0.478-0.038,0.755-0.086,0.839-0.127c0.217-0.114,0.402-0.317,0.554-0.612c0.327-0.627,0.693-1.519,1.095-2.681
	c0.191-0.546,0.304-0.883,0.353-0.997c0.153-0.377,0.306-0.759,0.447-1.166l0.877-2.445c0.133-0.379,0.462-1.254,0.975-2.624
	c0.14-0.354,0.297-0.819,0.478-1.394l0.269-0.017l0.329,0.009c0.265,0.52,0.493,1.086,0.704,1.699
	c0.102,0.306,0.29,0.794,0.547,1.432l1.403,3.805l0.756,2.067c0.388,1.175,0.643,1.89,0.777,2.16
	c0.125,0.272,0.238,0.448,0.338,0.537c0.03,0.021,0.152,0.069,0.354,0.11c0.194,0.051,0.334,0.084,0.407,0.114
	c0.295,0.081,0.494,0.144,0.604,0.203c0.024,0.069,0.034,0.117,0.034,0.164c0,0.022-0.009,0.075-0.026,0.124
	c-0.19,0.011-0.338,0.018-0.419,0.018c-0.308,0-0.863-0.018-1.663-0.027l-0.926-0.02l-1.128,0.006c-0.076,0-0.15,0-0.219,0
	c-0.081-0.006-0.148-0.012-0.21-0.012h-0.198c-0.068-0.004-0.133-0.029-0.187-0.061c0-0.084,0.013-0.168,0.046-0.254
	c0.077-0.028,0.146-0.054,0.199-0.062l0.981-0.06c0.248-0.01,0.437-0.051,0.572-0.107c0.036-0.113,0.057-0.189,0.057-0.251
	c0-0.11-0.084-0.401-0.24-0.86c-0.118-0.311-0.21-0.606-0.294-0.884c-0.083-0.28-0.412-1.198-0.982-2.745
	c-0.261-0.044-0.48-0.07-0.668-0.07l-1.984,0.025l-0.583-0.014c-0.216,0-0.447,0.014-0.691,0.043
	c-0.081,0.189-0.135,0.32-0.167,0.395l-0.815,2.553c-0.347,0.972-0.519,1.505-0.519,1.605c0,0.055,0.028,0.147,0.08,0.278
	c0.134,0.04,0.303,0.069,0.524,0.103l1.264,0.111c0.063,0.055,0.096,0.1,0.096,0.152c0,0.031-0.012,0.07-0.024,0.136
	c-0.277,0-0.495,0-0.641,0c-0.493,0-1.071-0.011-1.727-0.035c-0.297-0.015-0.515-0.021-0.644-0.021
	c-0.135,0-0.356,0.006-0.675,0.021c-0.217,0.011-0.365,0.013-0.451,0.013c-0.154,0-0.345-0.002-0.575-0.027v-0.055
	C122.158,40.771,122.162,40.711,122.187,40.639z M126.606,35.073c0.667,0.044,1.418,0.061,2.264,0.061
	c0.487,0,0.906-0.017,1.273-0.052c-0.059-0.236-0.133-0.465-0.214-0.672c-0.401-1.071-0.626-1.667-0.661-1.777l-0.842-2.14
	l-0.101-0.176c-0.032,0.081-0.175,0.407-0.41,0.968c-0.39,0.963-0.678,1.711-0.851,2.247c-0.079,0.237-0.157,0.477-0.251,0.719
	c-0.088,0.238-0.137,0.401-0.161,0.493c-0.022,0.102-0.055,0.201-0.105,0.296L126.606,35.073z"/>
<path style="fill:#58595B;" d="M136.154,40.65c0.895-0.109,1.392-0.186,1.517-0.227c0.087-0.029,0.151-0.119,0.221-0.275v-0.107
	c0-0.143,0.023-0.716,0.077-1.677c0.015-0.267,0.018-0.528,0.018-0.802l-0.033-1.09l0.021-1.255l-0.005-2.321l0.005-1.67
	c0.012-0.7-0.046-1.132-0.161-1.286c-0.125-0.154-0.409-0.262-0.887-0.326c-0.471-0.068-0.734-0.115-0.791-0.146
	c-0.045-0.032-0.068-0.082-0.068-0.149c0-0.039,0-0.099,0.032-0.164c0.054-0.052,0.186-0.086,0.428-0.095
	c0.024,0,0.102-0.009,0.247-0.021c0.142-0.021,0.274-0.021,0.395-0.021h0.758l2.438-0.027c1.379,0,2.348,0.092,2.902,0.298
	c0.553,0.208,0.986,0.555,1.315,1.037c0.33,0.484,0.49,1.026,0.49,1.629c0,1.13-0.586,2.005-1.792,2.604
	c-0.188,0.106-0.355,0.199-0.477,0.274c0.206,0.454,0.505,0.978,0.885,1.603l1.17,2.02c0.464,0.743,0.797,1.207,0.979,1.395
	c0.167,0.185,0.396,0.344,0.653,0.471c0.249,0.126,0.678,0.232,1.284,0.347c0.016,0.069,0.016,0.124,0.016,0.153
	c0,0.039,0,0.084-0.016,0.146c-0.849,0.015-1.83,0.019-2.966,0.019c-0.083,0-0.201-0.004-0.336-0.019
	c-0.437-0.849-0.956-1.768-1.548-2.776l-1.371-2.51c-0.181-0.266-0.341-0.422-0.459-0.49c-0.125-0.063-0.28-0.099-0.483-0.099
	l-0.782,0.013l-0.269-0.013c-0.013,0.207-0.02,0.601-0.02,1.214v3.17c-0.005,0.119,0.016,0.289,0.074,0.492
	c0.047,0.119,0.129,0.208,0.257,0.288c0.112,0.071,0.465,0.179,1.035,0.312l0.391,0.098c0.041,0.061,0.075,0.146,0.075,0.25
	c-0.168,0.029-0.289,0.051-0.355,0.051c-0.558,0-0.945-0.013-1.181-0.021c-0.108,0-0.203-0.012-0.283-0.012l-1.254,0.021
	l-1.231-0.01c-0.055,0-0.339,0.01-0.844,0.027l-0.184-0.037l-0.021-0.093C136.02,40.791,136.067,40.725,136.154,40.65z
	 M139.586,34.586c0.17,0.007,0.293,0.007,0.369,0.007c0.454,0,0.965-0.052,1.543-0.155c0.41-0.082,0.741-0.219,0.988-0.39
	c0.256-0.192,0.467-0.459,0.637-0.823c0.172-0.351,0.25-0.719,0.25-1.104c0-0.422-0.122-0.863-0.396-1.33
	c-0.201-0.361-0.548-0.66-1.035-0.893c-0.476-0.25-1.064-0.363-1.747-0.363c-0.165,0-0.385,0.008-0.648,0.024
	c-0.018,0.318-0.026,0.572-0.026,0.735l0.035,1.731l-0.009,0.725C139.547,33.223,139.557,33.836,139.586,34.586z"/>
<path style="fill:#58595B;" d="M148.061,40.984c0.011-0.092,0.026-0.172,0.08-0.248c0.48-0.125,0.948-0.213,1.399-0.258
	c0.307-0.021,0.499-0.096,0.584-0.205c0.064-0.084,0.098-0.377,0.116-0.887l0.068-2.451l-0.017-1.666l0.017-2.162v-0.584
	c0.01-1.299,0-2.109-0.025-2.432c-0.008-0.067-0.037-0.154-0.074-0.262c-0.158-0.08-0.304-0.123-0.407-0.149
	c-0.109-0.021-0.592-0.115-1.459-0.269c-0.003-0.069-0.003-0.113-0.003-0.148c0-0.041,0-0.089,0.003-0.144
	c0.129,0,0.313,0.009,0.579,0.016l1.418,0.052l0.808,0.021l0.249-0.008c0.025,0,0.111,0.006,0.262,0.014
	c0.372,0,0.582,0,0.634-0.005l0.741-0.054c0.505,0,0.857,0.005,1.063,0.021c-0.002,0.114-0.028,0.237-0.068,0.37
	c-0.065,0.01-0.388,0.03-0.962,0.042c-0.569,0.026-0.907,0.063-0.99,0.114c-0.145,0.076-0.22,0.325-0.22,0.744
	c0,0.094-0.006,0.293-0.02,0.599V31.6l0.014,1.712v0.59l0.021,3.06l-0.035,2.614l0.014,0.581c0,0.182,0.031,0.302,0.088,0.342
	c0.162,0.006,0.611,0.015,1.373,0.017h0.626l1.602-0.054c0.419-0.008,0.717-0.056,0.901-0.132c0.17-0.063,0.483-0.271,0.892-0.63
	c0.264-0.22,0.461-0.437,0.601-0.669c0.026-0.063,0.084-0.133,0.159-0.227c0.119-0.166,0.277-0.478,0.467-0.967h0.31
	c-0.038,0.221-0.077,0.428-0.126,0.633c-0.174,0.865-0.295,1.598-0.362,2.18c-0.011,0.123-0.026,0.236-0.038,0.334l-3.476-0.092
	c-2.965,0-4.74,0.023-5.301,0.078c-0.161,0.014-0.353,0.014-0.539,0.014H148.061L148.061,40.984z"/>
<path style="fill:#58595B;" d="M160.173,35.012c0-0.629,0.076-1.193,0.233-1.686c0.149-0.485,0.396-1.016,0.76-1.603
	c0.36-0.569,0.793-1.049,1.297-1.432c0.517-0.392,1.207-0.73,2.102-1.026c0.637-0.205,1.425-0.309,2.397-0.309
	c0.65,0,1.287,0.083,1.899,0.258c0.62,0.171,1.186,0.423,1.694,0.724c0.502,0.316,1.015,0.784,1.525,1.424
	c0.348,0.452,0.609,0.931,0.793,1.445c0.233,0.672,0.352,1.367,0.352,2.082c0,0.813-0.083,1.493-0.24,2.028
	c-0.155,0.541-0.419,1.077-0.796,1.599c-0.276,0.407-0.784,0.877-1.483,1.402c-0.477,0.362-1.055,0.648-1.755,0.873
	c-0.699,0.214-1.454,0.333-2.258,0.333c-0.821,0-1.565-0.094-2.202-0.293c-0.639-0.19-1.181-0.424-1.606-0.7
	c-0.432-0.281-0.873-0.674-1.324-1.213c-0.456-0.538-0.794-1.131-1.037-1.786C160.294,36.482,160.173,35.777,160.173,35.012z
	 M166.611,40.779c0.527,0,1.056-0.084,1.613-0.229c0.556-0.137,1.062-0.378,1.487-0.719c0.436-0.34,0.771-0.718,1.018-1.146
	c0.249-0.431,0.445-0.984,0.584-1.66c0.148-0.67,0.23-1.342,0.23-2.015c0-0.839-0.13-1.671-0.37-2.493
	c-0.196-0.632-0.508-1.179-0.943-1.676c-0.43-0.488-0.945-0.871-1.569-1.142c-0.606-0.265-1.261-0.397-1.957-0.397
	c-0.557,0-1.116,0.084-1.64,0.274c-0.542,0.177-0.987,0.424-1.329,0.713c-0.347,0.282-0.67,0.691-0.958,1.22
	c-0.307,0.53-0.527,1.107-0.687,1.75c-0.157,0.641-0.226,1.197-0.226,1.684c0,0.516,0.069,1.095,0.226,1.744
	c0.159,0.649,0.365,1.209,0.639,1.69c0.261,0.47,0.598,0.894,0.988,1.265c0.399,0.364,0.84,0.642,1.324,0.84
	C165.535,40.678,166.054,40.779,166.611,40.779z"/>
<path style="fill:#58595B;" d="M181.973,29.498c0.055,0.402,0.078,0.646,0.078,0.704l-0.029,0.82
	c-0.02,0.355-0.029,0.588-0.053,0.678c-0.056,0.024-0.105,0.041-0.137,0.041l-0.088-0.019c-0.199-0.858-0.536-1.49-1.003-1.891
	c-0.476-0.395-1.046-0.599-1.731-0.599c-0.699,0-1.271,0.205-1.732,0.599c-0.451,0.401-0.677,0.858-0.677,1.374
	c0,0.411,0.16,0.772,0.477,1.105c0.312,0.336,1.124,0.836,2.415,1.508c0.991,0.5,1.702,0.922,2.131,1.25
	c0.417,0.322,0.742,0.695,0.953,1.121c0.219,0.431,0.33,0.905,0.33,1.43c0,0.662-0.181,1.287-0.519,1.861
	c-0.336,0.586-0.799,1.023-1.384,1.318c-0.579,0.294-1.348,0.442-2.31,0.442c-0.84,0-1.626-0.14-2.4-0.402
	c-0.451-0.157-0.719-0.297-0.823-0.387c-0.099-0.095-0.153-0.204-0.153-0.317c0-0.068,0.009-0.152,0.021-0.257
	c0.093-0.735,0.132-1.33,0.142-1.806c0.01-0.283,0.035-0.454,0.065-0.512c0.029-0.035,0.069-0.061,0.136-0.061
	c0.062,0,0.11,0.023,0.134,0.059c0.039,0.049,0.063,0.118,0.073,0.23c0.069,0.758,0.425,1.438,1.055,2.038
	c0.636,0.606,1.345,0.897,2.14,0.897c0.49,0,0.945-0.1,1.353-0.303c0.41-0.208,0.733-0.495,0.951-0.888
	c0.25-0.394,0.357-0.763,0.357-1.126c0-0.5-0.178-0.957-0.525-1.369c-0.359-0.418-1.063-0.898-2.129-1.457
	c-1.063-0.547-1.75-0.949-2.064-1.202c-0.524-0.416-0.917-0.853-1.172-1.317c-0.195-0.357-0.29-0.771-0.29-1.25
	c0-0.858,0.334-1.583,1.02-2.183c0.68-0.601,1.59-0.896,2.736-0.896c0.629,0,1.169,0.068,1.627,0.211
	C181.288,29.061,181.625,29.25,181.973,29.498z"/>
<path style="fill:#58595B;" d="M189.239,29.176l0.063-0.157c0.505,0,1.011,0.008,1.509,0.021h0.297c0.088,0,0.193,0,0.31-0.008
	c0.399-0.012,1.122-0.03,2.176-0.03c0.218,0,0.419,0.006,0.615,0.006c0.192,0.012,0.386,0.012,0.574,0.012
	c0.03,0.021,0.06,0.05,0.083,0.09l-0.022,0.142c-0.034,0.062-0.13,0.094-0.276,0.094h-0.071c-0.173,0-0.459,0.012-0.847,0.042
	c-0.402,0.037-0.666,0.1-0.781,0.192c-0.078,0.071-0.125,0.158-0.125,0.271c0,0.244,0.103,0.596,0.305,1.083l1.415,3.272
	l0.487,1.083c0.482,1.148,0.945,2.324,1.41,3.523c0.058,0.136,0.091,0.248,0.145,0.351l0.616-1.521
	c0.328-0.759,0.649-1.582,0.975-2.44l0.638-1.741c0.004-0.045,0.05-0.173,0.104-0.376c0.597-1.639,0.894-2.67,0.894-3.095
	c0-0.104-0.039-0.199-0.131-0.292c-0.076-0.095-0.219-0.179-0.4-0.238c-0.069-0.022-0.315-0.058-0.715-0.115l-0.688-0.079
	c-0.056-0.058-0.089-0.12-0.089-0.156l0.033-0.078l3.007-0.03h0.984c0.34,0,0.566,0.026,0.69,0.068l0.004,0.077
	c0,0.047-0.014,0.114-0.051,0.194c-0.151,0.046-0.296,0.08-0.41,0.089c-0.515,0.063-0.842,0.138-0.966,0.22
	c-0.116,0.087-0.249,0.26-0.382,0.53l-2.435,6.021c-0.76,1.818-1.308,3.217-1.613,4.213l-0.273,0.809
	c-0.086,0.043-0.146,0.074-0.218,0.074c-0.062,0-0.13-0.011-0.218-0.035c-0.737-1.895-1.334-3.365-1.795-4.408l-2.842-6.422
	c-0.209-0.38-0.356-0.613-0.462-0.688c-0.094-0.076-0.448-0.188-1.073-0.331c-0.211-0.049-0.336-0.079-0.357-0.094
	C189.288,29.29,189.256,29.25,189.239,29.176z"/>
<path style="fill:#58595B;" d="M203.119,40.639c0.14-0.054,0.281-0.095,0.422-0.101c0.943-0.065,1.493-0.179,1.626-0.345
	c0.138-0.16,0.201-0.949,0.201-2.373l-0.013-0.983v-1.011L205.32,34.7l0.017-0.663v-0.725v-0.844l-0.026-0.387l0.026-0.482
	c0-0.108,0-0.237,0-0.386c0-0.399-0.017-0.799-0.06-1.225c-0.021-0.099-0.058-0.177-0.096-0.263
	c-0.234-0.113-0.604-0.198-1.11-0.234c-0.505-0.046-0.798-0.085-0.863-0.136c-0.062-0.037-0.082-0.136-0.089-0.288h0.785
	l2.463,0.062c0.63,0,1.463-0.021,2.52-0.062c0,0.103,0,0.191-0.015,0.275c-0.123,0.035-0.331,0.069-0.615,0.102
	c-0.596,0.073-0.952,0.139-1.085,0.203c-0.07,0.028-0.138,0.077-0.173,0.156c-0.067,0.111-0.095,0.317-0.11,0.626l-0.054,1.188
	l0.045,4.127v1.631c-0.013,0.519-0.024,0.865-0.024,1.051c0,0.691,0.02,1.138,0.055,1.327c0.037,0.191,0.089,0.326,0.173,0.41
	c0.089,0.09,0.229,0.154,0.41,0.205c0.286,0.072,0.512,0.104,0.674,0.107c0.354,0.014,0.565,0.063,0.651,0.149
	c0.024,0.079,0.039,0.151,0.039,0.203v0.075c-0.568,0.01-0.987,0.027-1.248,0.027c-0.154,0-0.438-0.018-0.834-0.027l-1.27,0.01
	h-2.186h-0.185L203.119,40.639z"/>
<path style="fill:#58595B;" d="M209.814,40.639c0.084-0.054,0.168-0.086,0.229-0.086h0.221c0.047,0,0.116,0,0.221-0.001
	c0.479-0.038,0.759-0.086,0.848-0.127c0.208-0.114,0.395-0.317,0.551-0.612c0.329-0.627,0.686-1.519,1.086-2.681
	c0.19-0.546,0.313-0.883,0.361-0.997c0.154-0.377,0.311-0.759,0.443-1.166l0.869-2.445c0.137-0.379,0.467-1.254,0.983-2.624
	c0.136-0.354,0.292-0.819,0.479-1.394l0.271-0.017l0.321,0.009c0.264,0.52,0.497,1.086,0.711,1.699
	c0.103,0.306,0.288,0.794,0.541,1.432l1.399,3.805l0.756,2.067c0.394,1.175,0.649,1.89,0.783,2.16
	c0.114,0.272,0.236,0.448,0.34,0.537c0.027,0.021,0.141,0.069,0.34,0.11c0.203,0.051,0.338,0.084,0.427,0.114
	c0.288,0.081,0.481,0.144,0.596,0.203c0.019,0.069,0.038,0.117,0.038,0.164c0,0.022-0.016,0.075-0.029,0.124
	c-0.197,0.011-0.342,0.018-0.416,0.018c-0.316,0-0.875-0.018-1.668-0.027l-0.935-0.02l-1.112,0.006c-0.074,0-0.152,0-0.234,0
	c-0.073-0.006-0.139-0.012-0.187-0.012h-0.22c-0.063-0.004-0.12-0.029-0.186-0.061c0-0.084,0.012-0.168,0.055-0.254
	c0.074-0.028,0.143-0.054,0.201-0.062l0.973-0.06c0.253-0.01,0.449-0.051,0.583-0.107c0.032-0.113,0.049-0.189,0.049-0.251
	c0-0.11-0.079-0.401-0.243-0.86c-0.111-0.311-0.209-0.606-0.294-0.884c-0.082-0.28-0.413-1.198-0.983-2.745
	c-0.248-0.044-0.471-0.07-0.668-0.07l-1.984,0.025l-0.585-0.014c-0.203,0-0.438,0.014-0.688,0.043
	c-0.08,0.189-0.134,0.32-0.16,0.395l-0.813,2.553c-0.348,0.972-0.521,1.505-0.521,1.605c0,0.055,0.025,0.147,0.082,0.278
	c0.131,0.04,0.303,0.069,0.523,0.103l1.257,0.111c0.071,0.055,0.101,0.1,0.101,0.152c0,0.031-0.011,0.07-0.023,0.136
	c-0.277,0-0.493,0-0.645,0c-0.49,0-1.063-0.011-1.721-0.035c-0.304-0.015-0.518-0.021-0.65-0.021c-0.131,0-0.356,0.006-0.674,0.021
	c-0.217,0.011-0.367,0.013-0.455,0.013c-0.146,0-0.344-0.002-0.57-0.027v-0.055C209.786,40.771,209.791,40.711,209.814,40.639z
	 M214.239,35.073c0.666,0.044,1.413,0.061,2.259,0.061c0.488,0,0.912-0.017,1.277-0.052c-0.063-0.236-0.14-0.465-0.213-0.672
	c-0.406-1.071-0.629-1.667-0.672-1.777l-0.844-2.14l-0.091-0.176c-0.037,0.081-0.175,0.407-0.413,0.968
	c-0.391,0.963-0.676,1.711-0.848,2.247c-0.075,0.237-0.165,0.477-0.254,0.719c-0.08,0.238-0.145,0.401-0.158,0.493
	c-0.025,0.102-0.061,0.201-0.105,0.296L214.239,35.073z"/>
<path style="fill:#58595B;" d="M223.354,40.984c0.006-0.092,0.032-0.172,0.071-0.248c0.49-0.125,0.951-0.213,1.407-0.258
	c0.309-0.021,0.501-0.096,0.581-0.205c0.067-0.084,0.104-0.377,0.117-0.887l0.063-2.451V35.27v-2.162v-0.584
	c0.005-1.299,0-2.109-0.021-2.432c0-0.067-0.025-0.154-0.069-0.262c-0.165-0.08-0.301-0.123-0.407-0.149
	c-0.113-0.021-0.596-0.115-1.455-0.269c-0.012-0.069-0.012-0.113-0.012-0.148c0-0.041,0-0.089,0.012-0.144
	c0.11,0,0.309,0.009,0.571,0.016l1.414,0.052l0.813,0.021l0.242-0.008c0.035,0,0.125,0.006,0.274,0.014c0.354,0,0.576,0,0.629-0.005
	l0.743-0.054c0.498,0,0.854,0.005,1.059,0.021c-0.009,0.114-0.029,0.237-0.076,0.37c-0.061,0.01-0.381,0.03-0.959,0.042
	c-0.563,0.026-0.898,0.063-0.985,0.114c-0.148,0.076-0.218,0.325-0.218,0.744c0,0.094-0.006,0.293-0.021,0.599V31.6l0.016,1.712
	v0.59l0.021,3.06l-0.036,2.614l0.016,0.581c0,0.182,0.031,0.302,0.095,0.342c0.144,0.006,0.606,0.015,1.36,0.017h0.627l1.608-0.054
	c0.417-0.008,0.719-0.056,0.896-0.132c0.188-0.063,0.488-0.271,0.91-0.63c0.244-0.22,0.445-0.437,0.58-0.669
	c0.038-0.063,0.08-0.133,0.159-0.227c0.113-0.166,0.272-0.478,0.472-0.967h0.303c-0.035,0.221-0.073,0.428-0.119,0.633
	c-0.169,0.865-0.303,1.598-0.361,2.18c-0.021,0.123-0.031,0.236-0.039,0.334l-3.466-0.092c-2.979,0-4.754,0.023-5.303,0.078
	c-0.175,0.014-0.351,0.014-0.552,0.014H223.354L223.354,40.984z"/>
<path style="fill:#58595B;" d="M240.273,40.797c0.074-0.061,0.123-0.102,0.168-0.104c0.103-0.028,0.283-0.055,0.529-0.075
	c0.606-0.033,0.973-0.088,1.117-0.164c0.088-0.124,0.128-0.297,0.128-0.519l-0.006-0.651l0.006-2.361l-0.016-1.118l0.01-2.324
	l-0.055-2.647c0-0.63-0.038-0.988-0.125-1.078c-0.099-0.106-0.423-0.177-0.979-0.194c-0.24-0.005-0.443-0.024-0.619-0.06
	c-0.08-0.042-0.121-0.095-0.121-0.162c0-0.05,0.017-0.116,0.047-0.18c0.059-0.03,0.098-0.039,0.142-0.039
	c0.084,0,0.199,0,0.312,0.009c0.371,0.03,0.752,0.045,1.138,0.045l0.688-0.016l1.627,0.041c0.814,0,1.449-0.012,1.91-0.029
	c0.449-0.017,0.762-0.027,0.916-0.027c0.149,0,0.502,0.015,1.063,0.03l1.314-0.003l0.167,0.029l0.763-0.029l0.092,0.042
	c0.035,0.06,0.054,0.104,0.064,0.164c0,0.08-0.011,0.219-0.045,0.397c-0.021,0.173-0.041,0.288-0.041,0.327
	c0,0.647,0.021,1.187,0.065,1.638c0,0.039-0.024,0.059-0.05,0.074c-0.066,0-0.125-0.016-0.184-0.026
	c-0.066-0.125-0.165-0.332-0.268-0.625c-0.114-0.292-0.293-0.638-0.521-1.031c-0.153-0.253-0.271-0.407-0.368-0.46
	c-0.076-0.051-0.259-0.075-0.527-0.075c-0.059,0-0.334-0.01-0.84-0.02c-0.146-0.003-0.274-0.003-0.418-0.003l-2.629,0.057h-0.231
	c-0.337,0-0.54,0.041-0.611,0.119c-0.104,0.149-0.157,0.59-0.157,1.314c0,0.075,0.008,0.812,0.049,2.222v1.284
	c0.06,0.021,0.136,0.035,0.214,0.035h0.157c0.113,0,0.264,0.004,0.457,0.01c0.334,0.013,0.545,0.021,0.653,0.021
	c0.069,0,0.136-0.008,0.195-0.015c0.668-0.021,1.532-0.035,2.58-0.035c0.327-0.055,0.514-0.125,0.569-0.198
	c0.099-0.108,0.157-0.396,0.215-0.872c0.043-0.461,0.147-0.732,0.309-0.795c0.081,0,0.155,0.01,0.225,0.045
	c0.01,0.061,0.016,0.094,0.016,0.141c0,0.039-0.006,0.119-0.016,0.213c-0.039,0.228-0.05,0.949-0.05,2.152
	c0,0.313,0.011,0.681,0.056,1.069c0.033,0.4,0.05,0.616,0.05,0.644c0,0.058-0.011,0.131-0.029,0.22
	c-0.045,0.026-0.096,0.045-0.122,0.045h-0.063c-0.1-0.173-0.189-0.446-0.293-0.813c-0.156-0.623-0.328-1.012-0.496-1.178
	c-0.18-0.154-0.461-0.227-0.857-0.227c-0.102,0-0.251,0-0.477,0.016c-0.231,0-0.572,0.004-1.022,0.004h-0.6
	c-0.854,0-1.425,0.021-1.691,0.064v0.298v1.714v1.076v1.055c0.021,0.63,0.044,0.991,0.128,1.09c0.1,0.135,0.333,0.202,0.686,0.202
	l0.57-0.008c0.039,0,0.234,0,0.571,0.008c0.336,0.013,0.748,0.017,1.248,0.017c1.188,0,1.979-0.045,2.38-0.153
	c0.396-0.104,0.73-0.284,0.975-0.535c0.258-0.263,0.58-0.828,0.969-1.688c0.122-0.246,0.242-0.371,0.359-0.371
	c0.049,0,0.115,0.016,0.194,0.064c-0.194,0.609-0.294,1.012-0.312,1.205c-0.079,0.432-0.121,0.873-0.121,1.324
	c0,0.203-0.053,0.377-0.156,0.501h-0.201l-2.605,0.038l-1.168-0.01l-2.776,0.041h-1.136c-0.139,0-0.269,0-0.393,0
	c-1.115,0.057-1.939,0.078-2.455,0.078c-0.099,0-0.156-0.017-0.188-0.043c-0.045-0.035-0.053-0.076-0.053-0.134V40.797
	L240.273,40.797z"/>
<path style="fill:#58595B;" d="M260.111,29.498c0.061,0.402,0.078,0.646,0.078,0.704l-0.034,0.82
	c-0.017,0.355-0.035,0.588-0.05,0.678c-0.059,0.024-0.104,0.041-0.138,0.041l-0.09-0.019c-0.187-0.858-0.517-1.49-1.005-1.891
	c-0.467-0.395-1.05-0.599-1.723-0.599c-0.709,0-1.286,0.205-1.735,0.599c-0.456,0.401-0.674,0.858-0.674,1.374
	c0,0.411,0.159,0.772,0.479,1.105c0.309,0.336,1.11,0.836,2.406,1.508c0.997,0.5,1.701,0.922,2.123,1.25
	c0.426,0.322,0.759,0.695,0.967,1.121c0.217,0.431,0.321,0.905,0.321,1.43c0,0.662-0.173,1.287-0.517,1.861
	c-0.342,0.586-0.791,1.023-1.371,1.318c-0.592,0.294-1.366,0.442-2.317,0.442c-0.834,0-1.633-0.14-2.407-0.402
	c-0.447-0.157-0.725-0.297-0.818-0.387c-0.102-0.095-0.148-0.204-0.148-0.317c0-0.068,0.005-0.152,0.014-0.257
	c0.086-0.735,0.14-1.33,0.14-1.806c0.016-0.283,0.036-0.454,0.075-0.512c0.014-0.035,0.064-0.061,0.134-0.061
	c0.061,0,0.096,0.023,0.131,0.059c0.039,0.049,0.06,0.118,0.073,0.23c0.068,0.758,0.416,1.438,1.063,2.038
	c0.612,0.606,1.333,0.897,2.131,0.897c0.49,0,0.944-0.1,1.354-0.303c0.401-0.208,0.724-0.495,0.962-0.888
	c0.229-0.394,0.341-0.763,0.341-1.126c0-0.5-0.174-0.957-0.517-1.369c-0.361-0.418-1.066-0.898-2.122-1.457
	c-1.063-0.547-1.755-0.949-2.089-1.202c-0.51-0.416-0.911-0.853-1.158-1.317c-0.194-0.357-0.29-0.771-0.29-1.25
	c0-0.858,0.338-1.583,1.019-2.183c0.678-0.601,1.588-0.896,2.732-0.896c0.635,0,1.175,0.068,1.643,0.211
	C259.421,29.061,259.759,29.25,260.111,29.498z"/>
<path style="fill:#58595B;" d="M262.725,29.109c0.109-0.025,0.181-0.032,0.202-0.032c0.22,0,0.562,0.013,1.038,0.044
	c0.264,0.009,0.438,0.009,0.523,0.009c0.137,0,0.424-0.02,0.861-0.046l1.577-0.085c0.41-0.042,0.903-0.057,1.449-0.057
	c0.976,0,1.739,0.135,2.32,0.41c0.569,0.28,1.017,0.706,1.334,1.287c0.302,0.586,0.456,1.176,0.456,1.755
	c0,0.967-0.338,1.801-1.012,2.511c-0.682,0.704-1.601,1.05-2.752,1.05c-0.322,0-0.586-0.035-0.795-0.094
	c-0.227-0.073-0.467-0.188-0.748-0.372c-0.115-0.078-0.188-0.164-0.214-0.253c0.026-0.045,0.06-0.078,0.104-0.096
	c0.083,0,0.173,0.018,0.267,0.062c0.208,0.069,0.472,0.106,0.8,0.106c0.48,0,0.94-0.127,1.385-0.363
	c0.437-0.245,0.759-0.588,0.99-1.028c0.215-0.438,0.329-0.91,0.329-1.405c0-0.474-0.118-0.946-0.354-1.401
	c-0.233-0.462-0.541-0.813-0.923-1.083c-0.213-0.162-0.549-0.29-1.002-0.389c-0.438-0.11-0.782-0.159-1.043-0.159
	c-0.754,0-1.207,0.059-1.346,0.17l-0.013,0.127l0.026,1.038l-0.014,0.19c0,0.165-0.013,0.424-0.013,0.77
	c0,1.26,0.013,2.043,0.057,2.353v0.521l0.12,4.235c0,0.065-0.006,0.177-0.025,0.337c-0.017,0.17-0.025,0.318-0.025,0.432
	c0,0.304,0.025,0.527,0.078,0.68c0.145,0.045,0.576,0.145,1.296,0.309c0.335,0.084,0.515,0.125,0.55,0.142
	c0.057,0.018,0.088,0.051,0.13,0.112c-0.026,0.092-0.062,0.154-0.101,0.183c-0.039,0.03-0.116,0.049-0.238,0.049
	c-0.072,0-0.244-0.021-0.518-0.049c-0.53-0.054-0.946-0.091-1.254-0.091l-1.631,0.07l-0.972-0.023c-0.062,0-0.242,0-0.539,0.015
	v-0.237l1.204-0.24c0.195-0.051,0.313-0.104,0.355-0.16c0.064-0.085,0.094-0.258,0.094-0.508c0-0.059,0-0.174,0.01-0.361
	c0.007-0.134,0.016-0.309,0.016-0.546c0-0.726-0.039-2.271-0.104-4.649c-0.02-1.115-0.03-2.24-0.03-3.39v-0.159
	c0-0.437-0.073-0.725-0.208-0.843c-0.229-0.198-0.798-0.371-1.71-0.503c-0.03-0.067-0.057-0.121-0.057-0.162
	C262.659,29.232,262.686,29.172,262.725,29.109z"/>
<path style="fill:#58595B;" d="M271.929,40.639c0.102-0.054,0.169-0.086,0.238-0.086h0.216c0.044,0,0.113,0,0.221-0.001
	c0.473-0.038,0.748-0.086,0.84-0.127c0.223-0.114,0.396-0.317,0.558-0.612c0.325-0.627,0.687-1.519,1.083-2.681
	c0.189-0.546,0.318-0.883,0.368-0.997c0.155-0.377,0.306-0.759,0.44-1.166l0.877-2.445c0.129-0.379,0.459-1.254,0.978-2.624
	c0.124-0.354,0.289-0.819,0.466-1.394l0.275-0.017l0.324,0.009c0.269,0.52,0.498,1.086,0.707,1.699
	c0.108,0.306,0.291,0.794,0.549,1.432l1.404,3.805l0.748,2.067c0.402,1.175,0.668,1.89,0.784,2.16
	c0.125,0.272,0.233,0.448,0.337,0.537c0.03,0.021,0.148,0.069,0.354,0.11c0.198,0.051,0.337,0.084,0.424,0.114
	c0.278,0.081,0.467,0.144,0.583,0.203c0.031,0.069,0.044,0.117,0.044,0.164c0,0.022-0.009,0.075-0.022,0.124
	c-0.211,0.011-0.34,0.018-0.422,0.018c-0.315,0-0.873-0.018-1.672-0.027l-0.917-0.02l-1.128,0.006c-0.074,0-0.152,0-0.23,0
	c-0.064-0.006-0.135-0.012-0.193-0.012h-0.208c-0.067-0.004-0.129-0.029-0.188-0.061c0-0.084,0.024-0.168,0.049-0.254
	c0.072-0.028,0.148-0.054,0.205-0.062l0.976-0.06c0.247-0.01,0.44-0.051,0.574-0.107c0.036-0.113,0.057-0.189,0.057-0.251
	c0-0.11-0.079-0.401-0.233-0.86c-0.117-0.311-0.213-0.606-0.304-0.884c-0.083-0.28-0.405-1.198-0.979-2.745
	c-0.254-0.044-0.477-0.07-0.672-0.07l-1.98,0.025l-0.583-0.014c-0.208,0-0.435,0.014-0.698,0.043
	c-0.08,0.189-0.137,0.32-0.158,0.395l-0.814,2.553c-0.346,0.972-0.52,1.505-0.52,1.605c0,0.055,0.031,0.147,0.084,0.278
	c0.129,0.04,0.304,0.069,0.515,0.103l1.263,0.111c0.073,0.055,0.108,0.1,0.108,0.152c0,0.031-0.019,0.07-0.03,0.136
	c-0.285,0-0.496,0-0.645,0c-0.492,0-1.066-0.011-1.723-0.035c-0.302-0.015-0.521-0.021-0.643-0.021
	c-0.135,0-0.357,0.006-0.682,0.021c-0.211,0.011-0.355,0.013-0.459,0.013c-0.145,0-0.338-0.002-0.564-0.027v-0.055
	C271.902,40.771,271.909,40.711,271.929,40.639z M276.355,35.073c0.666,0.044,1.414,0.061,2.268,0.061
	c0.475,0,0.9-0.017,1.268-0.052c-0.063-0.236-0.135-0.465-0.218-0.672c-0.393-1.071-0.626-1.667-0.67-1.777l-0.834-2.14
	l-0.095-0.176c-0.039,0.081-0.174,0.407-0.407,0.968c-0.401,0.963-0.685,1.711-0.856,2.247c-0.08,0.237-0.16,0.477-0.254,0.719
	c-0.078,0.238-0.14,0.401-0.156,0.493c-0.026,0.102-0.057,0.201-0.104,0.296L276.355,35.073z"/>
<path style="fill:#58595B;" d="M285.625,29.598l-0.018-0.442c0.959,0,1.656-0.025,2.11-0.078c0.173-0.017,0.286-0.026,0.357-0.026
	c0.059,0,0.135,0.005,0.247,0.009c0.264,0.22,0.506,0.458,0.725,0.745c0.047,0.05,0.108,0.119,0.163,0.186l1.959,2.152l0.289,0.34
	c0.385,0.461,0.744,0.857,1.071,1.182c0.322,0.331,0.958,1.011,1.895,2.053l2.215,2.455c0.213,0.238,0.497,0.54,0.838,0.896
	l0.006-0.146c-0.037-0.86-0.061-1.311-0.061-1.37l0.041-0.552l-0.02-0.867v-0.397c0-0.258-0.021-1.037-0.065-2.342
	c0-0.191-0.03-0.523-0.074-1.024c-0.045-0.493-0.069-0.929-0.069-1.305c0-0.681-0.03-1.074-0.113-1.186
	c-0.055-0.083-0.325-0.166-0.799-0.248c-0.103-0.01-0.274-0.03-0.514-0.057c-0.271-0.02-0.438-0.03-0.49-0.057
	c-0.043-0.017-0.094-0.06-0.144-0.155c0.006-0.089,0.036-0.191,0.081-0.28c0.167-0.045,0.336-0.065,0.491-0.065
	c0.18,0,0.386,0.021,0.646,0.059c0.256,0.053,0.48,0.068,0.688,0.068c0.289,0,0.729-0.015,1.327-0.062
	c0.337-0.023,0.576-0.033,0.701-0.033h0.164l-0.019,0.289c-0.103,0.039-0.246,0.067-0.407,0.073c-0.18,0.01-0.343,0.046-0.482,0.085
	c-0.233,0.069-0.352,0.124-0.406,0.175c-0.145,0.164-0.223,0.326-0.223,0.494l0.104,2.918l0.079,1.354l-0.021,0.385l0.062,1.865
	c0.046,1.274,0.06,2.375,0.06,3.317c0,0.198-0.005,0.644-0.035,1.327l-0.437,0.032c-0.218-0.243-0.956-1.021-2.231-2.331
	c-0.297-0.301-0.5-0.518-0.604-0.635l-0.793-0.922c-0.319-0.348-0.519-0.562-0.604-0.65c-0.092-0.092-0.16-0.163-0.209-0.204
	c-0.668-0.763-1.548-1.72-2.621-2.872c-0.291-0.314-0.72-0.795-1.282-1.441c-0.358-0.428-0.571-0.669-0.661-0.765
	c-0.1-0.094-0.225-0.204-0.383-0.321l-0.023,0.321c0,1.206,0.023,2.869,0.086,4.991l0.069,3.059
	c0.003,0.264,0.014,0.512,0.043,0.754l0.321,0.074c0.592,0.055,1.16,0.128,1.746,0.243c0.037,0.043,0.075,0.069,0.104,0.086
	l-0.015,0.354c-0.09,0.039-0.168,0.051-0.243,0.051c-0.06,0-0.146-0.006-0.25-0.021c-0.604-0.055-1.353-0.074-2.228-0.074
	c-0.621,0-1.164,0.015-1.629,0.043l-0.136,0.017c-0.06,0-0.133-0.003-0.242-0.024l-0.009-0.277l0.238-0.11l0.441-0.062
	c0.393-0.062,0.674-0.121,0.852-0.188c0.117-0.048,0.212-0.104,0.287-0.193c0.066-0.429,0.105-1.05,0.105-1.869
	c0-0.385-0.016-1.086-0.039-2.111v-1.255l-0.011-2.634c-0.005-1.173-0.052-1.866-0.118-2.083c-0.039-0.104-0.111-0.213-0.234-0.29
	c-0.228-0.171-0.543-0.275-0.92-0.313C285.98,29.673,285.725,29.632,285.625,29.598z"/>
<path style="fill:#58595B;" d="M300.811,30.461l0.383-1.4c0.023-0.182,0.054-0.307,0.096-0.359c0.051-0.046,0.09-0.076,0.146-0.076
	c0.119,0,0.241,0.128,0.383,0.394c0.104,0.196,0.187,0.321,0.261,0.368c0.067,0.052,0.173,0.092,0.298,0.112l0.089-0.012
	l0.396,0.033l2.197,0.037l2.582-0.01h0.758l1.438-0.027c0.069,0,0.133,0,0.228,0.019c0.424,0.038,0.685,0.05,0.779,0.05
	c0.1,0,0.178-0.026,0.233-0.089c0.016-0.02,0.108-0.224,0.297-0.614c0.081-0.174,0.175-0.259,0.292-0.259
	c0.063,0,0.121,0.016,0.189,0.042c0.031,0.122,0.049,0.222,0.049,0.325l-0.014,0.365l0.014,0.787c0,0.188-0.019,0.802-0.049,1.833
	c0,0.075-0.004,0.136-0.039,0.184c-0.06,0.045-0.127,0.068-0.172,0.068c-0.047,0-0.096-0.023-0.13-0.073
	c-0.034-0.034-0.086-0.179-0.14-0.421c-0.123-0.561-0.276-0.948-0.461-1.186c-0.118-0.158-0.307-0.258-0.529-0.337
	c-0.238-0.061-0.788-0.102-1.671-0.102c-0.706,0-1.22,0-1.569,0c-0.009,0.253-0.013,0.479-0.013,0.688l0.074,5.762
	c0,0.223-0.009,0.66-0.035,1.291l0.008,1.233l-0.008,0.69c0,0.218,0.035,0.373,0.104,0.471c0.086,0.083,0.283,0.168,0.613,0.259
	c0.567,0.146,0.943,0.231,1.131,0.267c0.125,0.008,0.219,0.035,0.293,0.068v0.283l-1.312-0.04c-0.738-0.006-1.276-0.021-1.64-0.039
	l-1.353,0.063l-0.993,0.061c-0.272,0-0.447-0.004-0.503-0.016l-0.138-0.059c0.021-0.142,0.046-0.234,0.085-0.281
	c0.047-0.033,0.155-0.072,0.344-0.088c0.263-0.043,0.564-0.107,0.921-0.201c0.348-0.1,0.581-0.193,0.693-0.297
	c0.061-0.053,0.105-0.145,0.121-0.272c0.074-0.274,0.088-0.812,0.088-1.61v-1.574l-0.035-3.432l-0.029-0.75l-0.023-2.477
	c-0.372,0-0.878,0-1.479,0c-0.899,0-1.438,0.069-1.623,0.171c-0.306,0.164-0.76,0.66-1.359,1.478c-0.2,0.298-0.37,0.454-0.52,0.454
	l-0.074-0.019c-0.033-0.039-0.043-0.073-0.043-0.104c0-0.076,0.052-0.303,0.137-0.666C300.708,30.946,300.78,30.627,300.811,30.461z
	"/>
<path style="fill:#58595B;" d="M313.495,35.012c0-0.629,0.078-1.193,0.226-1.686c0.148-0.485,0.407-1.016,0.76-1.603
	c0.365-0.569,0.793-1.049,1.303-1.432c0.506-0.392,1.207-0.73,2.099-1.026c0.63-0.205,1.425-0.309,2.398-0.309
	c0.647,0,1.28,0.083,1.903,0.258c0.621,0.171,1.186,0.423,1.691,0.724c0.506,0.316,1.014,0.784,1.514,1.424
	c0.351,0.452,0.615,0.931,0.791,1.445c0.25,0.672,0.362,1.367,0.362,2.082c0,0.813-0.078,1.493-0.237,2.028
	c-0.156,0.541-0.422,1.077-0.791,1.599c-0.291,0.407-0.785,0.877-1.492,1.402c-0.463,0.362-1.051,0.648-1.756,0.873
	c-0.701,0.214-1.44,0.333-2.257,0.333c-0.823,0-1.562-0.094-2.192-0.293c-0.654-0.19-1.183-0.424-1.612-0.7
	c-0.435-0.281-0.878-0.674-1.329-1.213c-0.455-0.538-0.792-1.131-1.021-1.786C313.607,36.482,313.495,35.777,313.495,35.012z
	 M319.926,40.779c0.518,0,1.061-0.084,1.617-0.229c0.559-0.137,1.055-0.378,1.487-0.719c0.438-0.34,0.763-0.718,1.012-1.146
	c0.248-0.431,0.438-0.984,0.585-1.66c0.148-0.67,0.229-1.342,0.229-2.015c0-0.839-0.125-1.671-0.375-2.493
	c-0.19-0.632-0.496-1.179-0.929-1.676c-0.426-0.488-0.952-0.871-1.567-1.142c-0.614-0.265-1.274-0.397-1.959-0.397
	c-0.564,0-1.109,0.084-1.65,0.274c-0.531,0.177-0.982,0.424-1.327,0.713c-0.338,0.282-0.663,0.691-0.964,1.22
	c-0.292,0.53-0.518,1.107-0.676,1.75c-0.147,0.641-0.233,1.197-0.233,1.684c0,0.516,0.086,1.095,0.233,1.744
	c0.158,0.649,0.367,1.209,0.637,1.69c0.271,0.47,0.604,0.894,0.99,1.265c0.393,0.364,0.834,0.642,1.326,0.84
	C318.85,40.678,319.363,40.779,319.926,40.779z"/>
<path style="fill:#58595B;" d="M335.29,29.498c0.056,0.402,0.079,0.646,0.079,0.704l-0.039,0.82
	c-0.016,0.355-0.03,0.588-0.049,0.678c-0.059,0.024-0.1,0.041-0.133,0.041l-0.092-0.019c-0.19-0.858-0.535-1.49-0.998-1.891
	c-0.477-0.395-1.049-0.599-1.734-0.599c-0.705,0-1.286,0.205-1.731,0.599c-0.462,0.401-0.673,0.858-0.673,1.374
	c0,0.411,0.154,0.772,0.467,1.105c0.316,0.336,1.125,0.836,2.42,1.508c0.986,0.5,1.693,0.922,2.125,1.25
	c0.426,0.322,0.748,0.695,0.963,1.121c0.22,0.431,0.328,0.905,0.328,1.43c0,0.662-0.18,1.287-0.518,1.861
	c-0.34,0.586-0.809,1.023-1.386,1.318c-0.583,0.294-1.356,0.442-2.31,0.442c-0.832,0-1.633-0.14-2.399-0.402
	c-0.457-0.157-0.729-0.297-0.829-0.387c-0.1-0.095-0.148-0.204-0.148-0.317c0-0.068,0.014-0.152,0.021-0.257
	c0.094-0.735,0.14-1.33,0.14-1.806c0.014-0.283,0.032-0.454,0.07-0.512c0.019-0.035,0.074-0.061,0.137-0.061
	c0.059,0,0.105,0.023,0.131,0.059c0.042,0.049,0.057,0.118,0.075,0.23c0.06,0.758,0.41,1.438,1.056,2.038
	c0.625,0.606,1.344,0.897,2.141,0.897c0.482,0,0.935-0.1,1.34-0.303c0.418-0.208,0.742-0.495,0.973-0.888
	c0.229-0.394,0.342-0.763,0.342-1.126c0-0.5-0.179-0.957-0.531-1.369c-0.356-0.418-1.049-0.898-2.112-1.457
	c-1.062-0.547-1.76-0.949-2.084-1.202c-0.515-0.416-0.907-0.853-1.156-1.317c-0.2-0.357-0.291-0.771-0.291-1.25
	c0-0.858,0.339-1.583,1.011-2.183c0.685-0.601,1.6-0.896,2.738-0.896c0.626,0,1.172,0.068,1.639,0.211
	C334.605,29.061,334.934,29.25,335.29,29.498z"/>
<path style="fill:#58595B;" d="M338.361,35.012c0-0.629,0.074-1.193,0.228-1.686c0.157-0.485,0.401-1.016,0.763-1.603
	c0.362-0.569,0.791-1.049,1.297-1.432c0.515-0.392,1.215-0.73,2.113-1.026c0.623-0.205,1.42-0.309,2.391-0.309
	c0.643,0,1.273,0.083,1.896,0.258c0.614,0.171,1.18,0.423,1.694,0.724c0.503,0.316,1.009,0.784,1.524,1.424
	c0.348,0.452,0.611,0.931,0.801,1.445c0.223,0.672,0.347,1.367,0.347,2.082c0,0.813-0.081,1.493-0.238,2.028
	c-0.167,0.541-0.432,1.077-0.794,1.599c-0.281,0.407-0.788,0.877-1.498,1.402c-0.461,0.362-1.055,0.648-1.747,0.873
	c-0.692,0.214-1.454,0.333-2.261,0.333c-0.816,0-1.552-0.094-2.197-0.293c-0.641-0.19-1.181-0.424-1.606-0.7
	c-0.433-0.281-0.872-0.674-1.324-1.213c-0.458-0.538-0.796-1.131-1.037-1.786C338.484,36.482,338.361,35.777,338.361,35.012z
	 M344.796,40.779c0.522,0,1.063-0.084,1.604-0.229c0.569-0.137,1.059-0.378,1.498-0.719c0.429-0.34,0.768-0.718,1.021-1.146
	c0.238-0.431,0.429-0.984,0.58-1.66c0.147-0.67,0.229-1.342,0.229-2.015c0-0.839-0.129-1.671-0.381-2.493
	c-0.186-0.632-0.498-1.179-0.932-1.676c-0.43-0.488-0.957-0.871-1.559-1.142c-0.618-0.265-1.271-0.397-1.963-0.397
	c-0.567,0-1.107,0.084-1.645,0.274c-0.542,0.177-0.986,0.424-1.34,0.713c-0.344,0.282-0.649,0.691-0.947,1.22
	c-0.303,0.53-0.529,1.107-0.684,1.75c-0.156,0.641-0.234,1.197-0.234,1.684c0,0.516,0.078,1.095,0.234,1.744
	c0.154,0.649,0.361,1.209,0.635,1.69c0.266,0.47,0.604,0.894,0.986,1.265c0.398,0.364,0.846,0.642,1.317,0.84
	C343.723,40.678,344.236,40.779,344.796,40.779z"/>
<path style="fill:#58595B;" d="M202.113,7.473v0.999h-2.624v1.262h2.282v0.927h-2.282v2.254h-1.199V7.473H202.113z"/>
<path style="fill:#58595B;" d="M209.09,12.495c-0.404,0.353-0.98,0.532-1.705,0.532c-0.734,0-1.305-0.179-1.705-0.524
	c-0.406-0.365-0.613-0.91-0.613-1.644V7.473h1.193v3.386c0,0.142,0.022,0.281,0.045,0.432c0.032,0.143,0.077,0.268,0.159,0.383
	c0.084,0.105,0.193,0.192,0.34,0.253c0.15,0.076,0.335,0.108,0.581,0.108c0.422,0,0.721-0.097,0.887-0.291
	c0.16-0.186,0.242-0.477,0.242-0.886V7.473h1.19v3.386C209.704,11.592,209.502,12.132,209.09,12.495z"/>
<path style="fill:#58595B;" d="M214.202,7.473l2.271,3.643h0.014V7.473h1.13v5.441h-1.203l-2.261-3.64h-0.01v3.64h-1.119V7.473
	H214.202z"/>
<path style="fill:#58595B;" d="M223.287,7.473c0.354,0,0.677,0.059,0.99,0.169c0.295,0.116,0.556,0.278,0.768,0.506
	c0.232,0.219,0.396,0.5,0.523,0.831c0.129,0.339,0.187,0.732,0.187,1.186c0,0.393-0.05,0.749-0.147,1.092
	c-0.104,0.336-0.265,0.625-0.471,0.859c-0.199,0.251-0.449,0.445-0.767,0.591c-0.297,0.133-0.666,0.208-1.083,0.208h-2.344V7.473
	H223.287z M223.202,11.905c0.172,0,0.342-0.029,0.502-0.085c0.172-0.058,0.306-0.146,0.438-0.278
	c0.135-0.131,0.225-0.291,0.306-0.503c0.075-0.212,0.118-0.46,0.118-0.763c0-0.274-0.034-0.519-0.08-0.751
	c-0.06-0.214-0.151-0.41-0.273-0.557c-0.123-0.159-0.275-0.284-0.482-0.364c-0.191-0.074-0.443-0.131-0.741-0.131h-0.843v3.434
	h1.056V11.905z"/>
<path style="fill:#58595B;" d="M231.587,7.473l2.029,5.441h-1.244l-0.399-1.213h-2.051l-0.424,1.213h-1.201l2.061-5.441H231.587z
	 M231.645,10.807l-0.677-2h-0.012l-0.715,2H231.645z"/>
<path style="fill:#58595B;" d="M239.861,8.925c-0.075-0.118-0.153-0.215-0.268-0.3c-0.102-0.083-0.225-0.159-0.375-0.199
	c-0.125-0.054-0.261-0.071-0.419-0.071c-0.263,0-0.483,0.04-0.672,0.148c-0.192,0.111-0.346,0.249-0.456,0.422
	c-0.119,0.171-0.208,0.376-0.253,0.598c-0.063,0.226-0.086,0.461-0.086,0.688s0.022,0.448,0.086,0.664
	c0.045,0.22,0.134,0.421,0.253,0.594c0.11,0.169,0.264,0.31,0.456,0.412c0.188,0.098,0.409,0.154,0.672,0.154
	c0.369,0,0.653-0.114,0.864-0.335c0.208-0.228,0.334-0.518,0.372-0.884h1.173c-0.046,0.339-0.12,0.653-0.244,0.912
	c-0.131,0.285-0.296,0.523-0.496,0.706c-0.22,0.203-0.453,0.349-0.742,0.443c-0.273,0.108-0.586,0.15-0.928,0.15
	c-0.416,0-0.785-0.069-1.115-0.208c-0.343-0.145-0.608-0.348-0.84-0.602c-0.234-0.261-0.402-0.543-0.523-0.899
	c-0.133-0.331-0.182-0.709-0.182-1.107s0.049-0.785,0.182-1.126c0.121-0.352,0.289-0.648,0.523-0.909
	c0.231-0.256,0.498-0.453,0.84-0.604c0.329-0.158,0.699-0.22,1.115-0.22c0.313,0,0.596,0.039,0.855,0.12
	c0.274,0.09,0.502,0.212,0.723,0.379c0.207,0.167,0.37,0.377,0.518,0.605c0.131,0.253,0.229,0.531,0.269,0.844h-1.165
	C239.977,9.171,239.936,9.039,239.861,8.925z"/>
<path style="fill:#58595B;" d="M245.49,7.473v5.441h-1.2V7.473H245.49z"/>
<path style="fill:#58595B;" d="M248.77,9.085c0.125-0.352,0.299-0.648,0.528-0.909c0.228-0.256,0.513-0.453,0.829-0.604
	c0.348-0.158,0.725-0.22,1.137-0.22c0.414,0,0.801,0.062,1.121,0.22c0.332,0.151,0.61,0.348,0.84,0.604
	c0.221,0.261,0.409,0.557,0.529,0.909c0.125,0.341,0.176,0.728,0.176,1.126s-0.05,0.776-0.176,1.107
	c-0.12,0.355-0.309,0.638-0.529,0.899c-0.229,0.253-0.509,0.457-0.84,0.602c-0.32,0.139-0.707,0.208-1.121,0.208
	c-0.412,0-0.789-0.069-1.137-0.208c-0.316-0.145-0.602-0.348-0.829-0.602c-0.229-0.261-0.403-0.543-0.528-0.899
	c-0.119-0.331-0.179-0.709-0.179-1.107S248.648,9.427,248.77,9.085z M249.864,10.875c0.058,0.22,0.136,0.421,0.256,0.594
	c0.12,0.169,0.266,0.31,0.45,0.412c0.187,0.098,0.431,0.154,0.693,0.154c0.268,0,0.492-0.056,0.676-0.154
	c0.187-0.102,0.352-0.243,0.459-0.412c0.113-0.173,0.207-0.374,0.262-0.594c0.053-0.216,0.074-0.437,0.074-0.664
	s-0.021-0.462-0.074-0.688c-0.057-0.222-0.148-0.427-0.262-0.598c-0.107-0.173-0.272-0.311-0.459-0.422
	c-0.184-0.108-0.408-0.148-0.676-0.148c-0.264,0-0.507,0.04-0.693,0.148c-0.185,0.111-0.331,0.249-0.45,0.422
	c-0.12,0.171-0.198,0.376-0.256,0.598c-0.054,0.226-0.079,0.461-0.079,0.688S249.811,10.66,249.864,10.875z"/>
<path style="fill:#58595B;" d="M258.221,7.473l2.27,3.643h0.009V7.473h1.121v5.441h-1.196l-2.26-3.64h-0.02v3.64h-1.119V7.473
	H258.221z"/>
</svg>
